%TF.GenerationSoftware,Altium Limited,Altium Designer,24.1.2 (44)*%
G04 Layer_Physical_Order=1*
G04 Layer_Color=255*
%FSLAX45Y45*%
%MOMM*%
%TF.SameCoordinates,66D67B9E-EE8B-469C-A6B4-FAA81B9CD0F6*%
%TF.FilePolarity,Positive*%
%TF.FileFunction,Copper,L1,Top,Signal*%
%TF.Part,Single*%
G01*
G75*
%TA.AperFunction,ConnectorPad*%
%ADD10R,1.15000X0.60000*%
%ADD11R,1.15000X0.30000*%
%TA.AperFunction,SMDPad,CuDef*%
%ADD12R,3.30000X1.60000*%
%ADD13R,1.20000X1.60000*%
%ADD14R,2.00000X1.05000*%
%ADD15R,0.90000X0.60000*%
%ADD16R,0.60000X0.90000*%
%ADD17R,1.35000X1.00000*%
%ADD18R,1.00000X1.35000*%
%ADD19R,0.80000X0.60000*%
G04:AMPARAMS|DCode=20|XSize=0.23928mm|YSize=0.80964mm|CornerRadius=0.11964mm|HoleSize=0mm|Usage=FLASHONLY|Rotation=180.000|XOffset=0mm|YOffset=0mm|HoleType=Round|Shape=RoundedRectangle|*
%AMROUNDEDRECTD20*
21,1,0.23928,0.57035,0,0,180.0*
21,1,0.00000,0.80964,0,0,180.0*
1,1,0.23928,0.00000,0.28518*
1,1,0.23928,0.00000,0.28518*
1,1,0.23928,0.00000,-0.28518*
1,1,0.23928,0.00000,-0.28518*
%
%ADD20ROUNDEDRECTD20*%
G04:AMPARAMS|DCode=21|XSize=0.80964mm|YSize=0.23928mm|CornerRadius=0.11964mm|HoleSize=0mm|Usage=FLASHONLY|Rotation=180.000|XOffset=0mm|YOffset=0mm|HoleType=Round|Shape=RoundedRectangle|*
%AMROUNDEDRECTD21*
21,1,0.80964,0.00000,0,0,180.0*
21,1,0.57035,0.23928,0,0,180.0*
1,1,0.23928,-0.28518,0.00000*
1,1,0.23928,0.28518,0.00000*
1,1,0.23928,0.28518,0.00000*
1,1,0.23928,-0.28518,0.00000*
%
%ADD21ROUNDEDRECTD21*%
%ADD22R,0.80964X0.23928*%
%ADD23R,2.55000X2.55000*%
%ADD24R,1.10000X0.60000*%
%ADD25R,0.80000X0.80000*%
%ADD26R,0.80000X0.80000*%
%TA.AperFunction,Conductor*%
%ADD27C,0.20000*%
%ADD28C,0.30000*%
%ADD29C,0.28423*%
%ADD30C,0.25000*%
%TA.AperFunction,ComponentPad*%
%ADD31O,2.15000X1.05000*%
%ADD32O,1.85000X1.05000*%
%ADD33C,0.70000*%
%ADD34C,1.60000*%
G04:AMPARAMS|DCode=35|XSize=1.6mm|YSize=1.6mm|CornerRadius=0.4mm|HoleSize=0mm|Usage=FLASHONLY|Rotation=90.000|XOffset=0mm|YOffset=0mm|HoleType=Round|Shape=RoundedRectangle|*
%AMROUNDEDRECTD35*
21,1,1.60000,0.80000,0,0,90.0*
21,1,0.80000,1.60000,0,0,90.0*
1,1,0.80000,0.40000,0.40000*
1,1,0.80000,0.40000,-0.40000*
1,1,0.80000,-0.40000,-0.40000*
1,1,0.80000,-0.40000,0.40000*
%
%ADD35ROUNDEDRECTD35*%
G04:AMPARAMS|DCode=36|XSize=1.6mm|YSize=1.6mm|CornerRadius=0.4mm|HoleSize=0mm|Usage=FLASHONLY|Rotation=180.000|XOffset=0mm|YOffset=0mm|HoleType=Round|Shape=RoundedRectangle|*
%AMROUNDEDRECTD36*
21,1,1.60000,0.80000,0,0,180.0*
21,1,0.80000,1.60000,0,0,180.0*
1,1,0.80000,-0.40000,0.40000*
1,1,0.80000,0.40000,0.40000*
1,1,0.80000,0.40000,-0.40000*
1,1,0.80000,-0.40000,-0.40000*
%
%ADD36ROUNDEDRECTD36*%
%TA.AperFunction,ViaPad*%
%ADD37C,0.60000*%
G36*
X17180045Y7325120D02*
X17203157Y7315546D01*
X17223956Y7301648D01*
X17241647Y7283958D01*
X17255545Y7263158D01*
X17265118Y7240045D01*
X17270000Y7215509D01*
Y7203001D01*
Y5357000D01*
Y5344491D01*
X17265118Y5319955D01*
X17255545Y5296843D01*
X17241647Y5276042D01*
X17223956Y5258352D01*
X17203156Y5244454D01*
X17180045Y5234880D01*
X17155508Y5230000D01*
X13864491D01*
X13839955Y5234880D01*
X13816843Y5244454D01*
X13796042Y5258352D01*
X13778352Y5276042D01*
X13764455Y5296843D01*
X13754880Y5319955D01*
X13750000Y5344491D01*
Y5357000D01*
Y7203000D01*
Y7215509D01*
X13754880Y7240045D01*
X13764455Y7263157D01*
X13778352Y7283958D01*
X13796042Y7301647D01*
X13816843Y7315546D01*
X13839955Y7325119D01*
X13864491Y7330000D01*
X13877000D01*
X17142999Y7330000D01*
X17155508D01*
X17180045Y7325120D01*
D02*
G37*
%LPC*%
G36*
X17057500Y7125000D02*
X16980000D01*
Y7065000D01*
X17057500D01*
Y7125000D01*
D02*
G37*
G36*
X16960001D02*
X16882500D01*
Y7065000D01*
X16960001D01*
Y7125000D01*
D02*
G37*
G36*
X17057500Y7045000D02*
X16980000D01*
Y6985000D01*
X17057500D01*
Y7045000D01*
D02*
G37*
G36*
X16960001D02*
X16882500D01*
Y6985000D01*
X16960001D01*
Y7045000D01*
D02*
G37*
G36*
X13973164Y7052000D02*
X13970001D01*
Y6962000D01*
X14060001D01*
Y6965165D01*
X14053185Y6990598D01*
X14040021Y7013401D01*
X14021400Y7032020D01*
X13998598Y7045185D01*
X13973164Y7052000D01*
D02*
G37*
G36*
X13950002D02*
X13946835D01*
X13921402Y7045185D01*
X13898599Y7032020D01*
X13879980Y7013401D01*
X13866815Y6990598D01*
X13860001Y6965165D01*
Y6962000D01*
X13950002D01*
Y7052000D01*
D02*
G37*
G36*
X14060001Y6942000D02*
X13970001D01*
Y6852000D01*
X13973164D01*
X13998598Y6858815D01*
X14021400Y6871980D01*
X14040021Y6890599D01*
X14053185Y6913402D01*
X14060001Y6938835D01*
Y6942000D01*
D02*
G37*
G36*
X13950002D02*
X13860001D01*
Y6938835D01*
X13866815Y6913402D01*
X13879980Y6890599D01*
X13898599Y6871980D01*
X13921402Y6858815D01*
X13946835Y6852000D01*
X13950002D01*
Y6942000D01*
D02*
G37*
G36*
X16652699Y7072700D02*
X16547301D01*
Y6967300D01*
X16571855D01*
Y6947700D01*
X16552299D01*
Y6832300D01*
X16637700D01*
Y6947700D01*
X16618146D01*
Y6967300D01*
X16652699D01*
Y7072700D01*
D02*
G37*
G36*
X16495000Y6880000D02*
X16455000D01*
Y6825000D01*
X16495000D01*
Y6880000D01*
D02*
G37*
G36*
X16435001D02*
X16395000D01*
Y6825000D01*
X16435001D01*
Y6880000D01*
D02*
G37*
G36*
X14489999Y6865000D02*
X14380000D01*
Y6802501D01*
X14489999D01*
Y6865000D01*
D02*
G37*
G36*
X14360001D02*
X14250000D01*
Y6802501D01*
X14360001D01*
Y6865000D01*
D02*
G37*
G36*
X14489999Y6782501D02*
X14380000D01*
Y6720000D01*
X14489999D01*
Y6782501D01*
D02*
G37*
G36*
X14360001D02*
X14250000D01*
Y6720000D01*
X14360001D01*
Y6782501D01*
D02*
G37*
G36*
X15139999Y6745000D02*
X15130000D01*
X15127299Y6745000D01*
X15080000D01*
Y6685000D01*
Y6625000D01*
X15127299D01*
X15130000Y6625000D01*
X15139999D01*
X15142700Y6625000D01*
X15189999D01*
Y6685000D01*
Y6745000D01*
X15142700D01*
X15139999Y6745000D01*
D02*
G37*
G36*
X16650000Y6655125D02*
X16605000D01*
Y6591999D01*
X16721809D01*
X16720634Y6600926D01*
X16713329Y6618563D01*
X16701707Y6633707D01*
X16686563Y6645328D01*
X16668925Y6652634D01*
X16650000Y6655125D01*
D02*
G37*
G36*
X17050000D02*
X17020000D01*
Y6591999D01*
X17121809D01*
X17120634Y6600926D01*
X17113329Y6618563D01*
X17101707Y6633707D01*
X17086563Y6645328D01*
X17068925Y6652634D01*
X17050000Y6655125D01*
D02*
G37*
G36*
X17000000D02*
X16970000D01*
X16951074Y6652634D01*
X16933437Y6645328D01*
X16918294Y6633707D01*
X16906673Y6618563D01*
X16899367Y6600926D01*
X16898190Y6591999D01*
X17000000D01*
Y6655125D01*
D02*
G37*
G36*
X16585001D02*
X16539999D01*
X16521074Y6652634D01*
X16503436Y6645328D01*
X16488293Y6633707D01*
X16476672Y6618563D01*
X16469366Y6600926D01*
X16468192Y6591999D01*
X16585001D01*
Y6655125D01*
D02*
G37*
G36*
X15880000Y6610000D02*
X15810001D01*
Y6520000D01*
X15880000D01*
Y6610000D01*
D02*
G37*
G36*
X15789999D02*
X15720000D01*
Y6520000D01*
X15789999D01*
Y6610000D01*
D02*
G37*
G36*
X17121809Y6571999D02*
X17020000D01*
Y6508874D01*
X17050000D01*
X17068925Y6511366D01*
X17086563Y6518671D01*
X17101707Y6530292D01*
X17113329Y6545437D01*
X17120634Y6563073D01*
X17121809Y6571999D01*
D02*
G37*
G36*
X17000000D02*
X16898190D01*
X16899367Y6563073D01*
X16906673Y6545437D01*
X16918294Y6530292D01*
X16933437Y6518671D01*
X16951074Y6511366D01*
X16970000Y6508874D01*
X17000000D01*
Y6571999D01*
D02*
G37*
G36*
X14745000Y6480000D02*
X14689999D01*
Y6440001D01*
X14745000D01*
Y6480000D01*
D02*
G37*
G36*
X15880000Y6500000D02*
X15810001D01*
Y6410000D01*
X15880000D01*
Y6500000D01*
D02*
G37*
G36*
X14745000Y6420001D02*
X14689999D01*
Y6380000D01*
X14745000D01*
Y6420001D01*
D02*
G37*
G36*
X15517000Y7243732D02*
X15437000D01*
X15416438Y7239642D01*
X15399007Y7227994D01*
X15387358Y7210562D01*
X15383269Y7190000D01*
Y7110000D01*
X15387358Y7089437D01*
X15399007Y7072005D01*
X15416438Y7060358D01*
X15437000Y7056268D01*
X15517000D01*
X15537563Y7060358D01*
X15554996Y7072005D01*
X15566643Y7089437D01*
X15570732Y7110000D01*
Y7121757D01*
X15852299D01*
Y7057300D01*
X16001756D01*
Y6602700D01*
X15957300D01*
Y6417300D01*
X16001756D01*
Y6387700D01*
X15977299D01*
Y6288243D01*
X15861699D01*
X15751675Y6398267D01*
X15756535Y6410000D01*
X15789999D01*
Y6500000D01*
X15720000D01*
Y6446535D01*
X15708267Y6441675D01*
X15688243Y6461699D01*
Y6539999D01*
X15688243Y6540000D01*
X15686093Y6550808D01*
X15679971Y6559971D01*
X15679970Y6559972D01*
X15529971Y6709971D01*
X15520808Y6716093D01*
X15510001Y6718243D01*
X15509999Y6718243D01*
X15325282D01*
X15318243Y6725283D01*
Y6745000D01*
X15316093Y6755808D01*
X15309972Y6764971D01*
X15309970Y6764971D01*
X15252699Y6822241D01*
Y6887700D01*
X15239743D01*
Y7058516D01*
X15258781Y7063618D01*
X15279919Y7075822D01*
X15297179Y7093081D01*
X15309383Y7114219D01*
X15315700Y7137796D01*
Y7162204D01*
X15309383Y7185781D01*
X15297179Y7206919D01*
X15279919Y7224178D01*
X15258781Y7236382D01*
X15235204Y7242700D01*
X15210796D01*
X15187219Y7236382D01*
X15166081Y7224178D01*
X15148822Y7206919D01*
X15136618Y7185781D01*
X15130299Y7162204D01*
Y7137796D01*
X15136618Y7114219D01*
X15148822Y7093081D01*
X15166081Y7075822D01*
X15183257Y7065905D01*
Y6887700D01*
X15147301D01*
Y6863243D01*
X15122701D01*
Y6887700D01*
X15017300D01*
Y6863243D01*
X14997701D01*
Y6877700D01*
X14884676D01*
X14875000Y6885000D01*
X14875000Y6885001D01*
X14874998Y6885000D01*
X14820001D01*
Y6835000D01*
Y6785000D01*
X14875000D01*
Y6785000D01*
X14882300Y6792300D01*
X14997701D01*
Y6806757D01*
X15017300D01*
Y6782300D01*
X15122701D01*
Y6806757D01*
X15147301D01*
Y6782300D01*
X15212758D01*
X15238326Y6756733D01*
X15233466Y6745000D01*
X15210001D01*
Y6685000D01*
Y6625000D01*
X15247098D01*
X15252357Y6612300D01*
X15238701Y6598643D01*
X15180402D01*
X15180400Y6598643D01*
X15169592Y6596493D01*
X15160429Y6590371D01*
X15160429Y6590370D01*
X15104893Y6534835D01*
X15098772Y6525672D01*
X15096622Y6514864D01*
X15096622Y6514863D01*
Y6474071D01*
X15083920Y6468810D01*
X14963145Y6589587D01*
Y6642300D01*
X14997301D01*
X14997701Y6642300D01*
X15010001Y6641334D01*
Y6625000D01*
X15060001D01*
Y6685000D01*
Y6745000D01*
X15010001D01*
Y6728665D01*
X14997701Y6727700D01*
X14997301Y6727700D01*
X14882300D01*
Y6708145D01*
X14867700D01*
Y6727700D01*
X14778250D01*
X14773730Y6740400D01*
X14779787Y6755023D01*
Y6772010D01*
X14778780Y6774440D01*
X14785835Y6785000D01*
X14800002D01*
Y6835000D01*
Y6885000D01*
X14745000D01*
Y6885000D01*
X14735324Y6877700D01*
X14622301D01*
Y6792300D01*
X14683035D01*
X14683907Y6787913D01*
X14690030Y6778750D01*
X14695085Y6773695D01*
X14694386Y6772010D01*
Y6755023D01*
X14700446Y6740400D01*
X14695924Y6727700D01*
X14622301D01*
Y6642300D01*
X14656854D01*
Y6620000D01*
X14658617Y6611143D01*
X14663634Y6603634D01*
X14747949Y6519320D01*
X14755457Y6514303D01*
X14764314Y6512541D01*
X14910353D01*
X14971793Y6451101D01*
X14967613Y6437320D01*
X14965376Y6436875D01*
X14957217Y6431424D01*
X14942781D01*
X14934624Y6436875D01*
X14925000Y6438790D01*
X14915376Y6436875D01*
X14907217Y6431424D01*
X14892781D01*
X14884624Y6436875D01*
X14875000Y6438790D01*
X14865376Y6436875D01*
X14857217Y6431424D01*
X14851767Y6423266D01*
X14849854Y6413642D01*
Y6361811D01*
X14845695Y6354305D01*
X14838190Y6350147D01*
X14786359D01*
X14776733Y6348233D01*
X14768576Y6342782D01*
X14763126Y6334624D01*
X14761211Y6325000D01*
X14763126Y6315376D01*
X14768576Y6307219D01*
Y6292782D01*
X14763126Y6284624D01*
X14761211Y6275000D01*
X14763126Y6265377D01*
X14766153Y6260845D01*
X14761459Y6249196D01*
X14760527Y6248145D01*
X14739587D01*
X14737700Y6250032D01*
Y6322700D01*
X14628143D01*
Y6380000D01*
X14670000D01*
Y6430001D01*
Y6480000D01*
X14615158D01*
X14408792Y6686366D01*
X14401283Y6691383D01*
X14392426Y6693145D01*
X14052699D01*
Y6710204D01*
X14046382Y6733781D01*
X14034178Y6754919D01*
X14016919Y6772178D01*
X13995781Y6784382D01*
X13972205Y6790700D01*
X13947797D01*
X13924219Y6784382D01*
X13903081Y6772178D01*
X13885822Y6754919D01*
X13873618Y6733781D01*
X13867300Y6710204D01*
Y6685796D01*
X13873618Y6662219D01*
X13885822Y6641081D01*
X13903081Y6623822D01*
X13924219Y6611618D01*
X13947797Y6605300D01*
X13972205D01*
X13995781Y6611618D01*
X14016919Y6623822D01*
X14034178Y6641081D01*
X14037946Y6647605D01*
X14041716Y6646855D01*
X14382838D01*
X14581854Y6447840D01*
Y6411105D01*
X14569154Y6409854D01*
X14568246Y6414420D01*
X14563229Y6421929D01*
X14498792Y6486366D01*
X14491283Y6491383D01*
X14482426Y6493145D01*
X14038667D01*
X14034178Y6500919D01*
X14016919Y6518178D01*
X13995781Y6530382D01*
X13972205Y6536700D01*
X13947797D01*
X13924219Y6530382D01*
X13903081Y6518178D01*
X13885822Y6500919D01*
X13873618Y6479781D01*
X13867300Y6456204D01*
Y6431796D01*
X13873618Y6408219D01*
X13885822Y6387081D01*
X13903081Y6369822D01*
X13924219Y6357618D01*
X13945070Y6352030D01*
X13943398Y6339330D01*
X13906186D01*
X13897328Y6337569D01*
X13889819Y6332552D01*
X13793634Y6236366D01*
X13788617Y6228857D01*
X13786855Y6220000D01*
Y5860000D01*
X13788617Y5851143D01*
X13793634Y5843634D01*
X13892085Y5745183D01*
X13885822Y5738919D01*
X13873618Y5717781D01*
X13867300Y5694204D01*
Y5669796D01*
X13873618Y5646219D01*
X13885822Y5625081D01*
X13903081Y5607822D01*
X13924219Y5595618D01*
X13947797Y5589300D01*
X13972205D01*
X13995781Y5595618D01*
X14016919Y5607822D01*
X14034178Y5625081D01*
X14046382Y5646219D01*
X14049768Y5658855D01*
X14472414D01*
X14646300Y5484968D01*
Y5432300D01*
X14751700D01*
Y5517700D01*
X14679031D01*
X14498364Y5698366D01*
X14490857Y5703383D01*
X14482001Y5705145D01*
X14049768D01*
X14046382Y5717781D01*
X14034178Y5738919D01*
X14016919Y5756178D01*
X13995781Y5768382D01*
X13972205Y5774700D01*
X13947797D01*
X13932208Y5770523D01*
X13833145Y5869587D01*
Y6210414D01*
X13873215Y6250483D01*
X13883377Y6242685D01*
X13873618Y6225781D01*
X13867300Y6202204D01*
Y6177796D01*
X13873618Y6154219D01*
X13885822Y6133081D01*
X13903081Y6115822D01*
X13924219Y6103618D01*
X13947797Y6097300D01*
X13972205D01*
X13995781Y6103618D01*
X14016919Y6115822D01*
X14034178Y6133081D01*
X14046382Y6154219D01*
X14049768Y6166855D01*
X14330412D01*
X14498759Y5998509D01*
X14506267Y5993492D01*
X14515125Y5991731D01*
X14849854D01*
Y5986358D01*
X14851767Y5976734D01*
X14851855Y5976602D01*
Y5769577D01*
X14839156Y5767051D01*
X14836198Y5774187D01*
X14824188Y5786199D01*
X14808495Y5792700D01*
X14791507D01*
X14775813Y5786199D01*
X14763802Y5774187D01*
X14762790Y5771747D01*
X14274541D01*
X14270224Y5777300D01*
X14276437Y5790000D01*
X14360001D01*
Y5852500D01*
X14250000D01*
Y5809326D01*
X14238268Y5804465D01*
X14090366Y5952366D01*
X14082858Y5957383D01*
X14074001Y5959145D01*
X14049768D01*
X14046382Y5971781D01*
X14034178Y5992919D01*
X14016919Y6010178D01*
X13995781Y6022382D01*
X13972205Y6028700D01*
X13947797D01*
X13924219Y6022382D01*
X13903081Y6010178D01*
X13885822Y5992919D01*
X13873618Y5971781D01*
X13867300Y5948204D01*
Y5923796D01*
X13873618Y5900219D01*
X13885822Y5879081D01*
X13903081Y5861822D01*
X13924219Y5849618D01*
X13947797Y5843300D01*
X13972205D01*
X13995781Y5849618D01*
X14016919Y5861822D01*
X14034178Y5879081D01*
X14046382Y5900219D01*
X14049768Y5912855D01*
X14064413D01*
X14245032Y5732237D01*
X14252541Y5727220D01*
X14261398Y5725458D01*
X14764156D01*
X14775813Y5713801D01*
X14791507Y5707300D01*
X14808495D01*
X14824188Y5713801D01*
X14836198Y5725813D01*
X14839600Y5734022D01*
X14852299Y5731496D01*
Y5662300D01*
X14877855D01*
Y5612700D01*
X14848300D01*
Y5527300D01*
X14953700D01*
Y5612700D01*
X14924146D01*
Y5662300D01*
X14937700D01*
Y5777700D01*
X14898145D01*
Y5830423D01*
X14910844Y5832949D01*
X14913802Y5825813D01*
X14925813Y5813801D01*
X14941507Y5807300D01*
X14958495D01*
X14974187Y5813801D01*
X14986198Y5825813D01*
X14992700Y5841507D01*
Y5858494D01*
X14986198Y5874188D01*
X14974187Y5886199D01*
X14965491Y5889802D01*
Y5902654D01*
X14963730Y5911511D01*
X14958711Y5919020D01*
X14948145Y5929587D01*
Y5957892D01*
X14960844Y5959143D01*
X14960901Y5958859D01*
X14965919Y5951350D01*
X14997733Y5919537D01*
X14997301Y5918494D01*
Y5901507D01*
X15003801Y5885813D01*
X15015813Y5873801D01*
X15031506Y5867300D01*
X15048492D01*
X15064188Y5873801D01*
X15076199Y5885813D01*
X15082700Y5901506D01*
X15095399Y5906721D01*
X15203854Y5798266D01*
Y5713145D01*
X15189999D01*
X15189999Y5713145D01*
X15166631D01*
X15166199Y5714187D01*
X15154187Y5726199D01*
X15138493Y5732700D01*
X15121506D01*
X15105814Y5726199D01*
X15100400Y5720787D01*
X15087700Y5726047D01*
Y5777700D01*
X15002299D01*
Y5662300D01*
X15024355D01*
Y5638750D01*
X15026117Y5629892D01*
X15031134Y5622384D01*
X15101855Y5551663D01*
Y5472000D01*
X15103616Y5463142D01*
X15108633Y5455634D01*
X15174300Y5389968D01*
Y5337300D01*
X15263742D01*
X15269566Y5330042D01*
X15271172Y5324600D01*
X15270354Y5323145D01*
X15000587D01*
X14953700Y5370032D01*
Y5422700D01*
X14863393D01*
X14858131Y5435400D01*
X14874586Y5451855D01*
X14972301D01*
Y5432300D01*
X15077699D01*
Y5517700D01*
X14972301D01*
Y5498145D01*
X14864999D01*
X14856143Y5496383D01*
X14848634Y5491366D01*
X14770413Y5413145D01*
X14482700D01*
Y5482700D01*
X14257300D01*
Y5451145D01*
X14053732D01*
Y5468000D01*
X14049641Y5488563D01*
X14037994Y5505995D01*
X14020563Y5517642D01*
X14000000Y5521732D01*
X13920000D01*
X13899438Y5517642D01*
X13882005Y5505995D01*
X13870358Y5488563D01*
X13866267Y5468000D01*
Y5388000D01*
X13870358Y5367438D01*
X13882005Y5350006D01*
X13899438Y5338358D01*
X13920000Y5334268D01*
X14000000D01*
X14020563Y5338358D01*
X14037994Y5350006D01*
X14049641Y5367438D01*
X14053732Y5388000D01*
Y5404855D01*
X14257300D01*
Y5352300D01*
X14482700D01*
Y5366855D01*
X14780000D01*
X14788857Y5368617D01*
X14796365Y5373634D01*
X14835600Y5412869D01*
X14848300Y5407608D01*
Y5337300D01*
X14920969D01*
X14974635Y5283634D01*
X14982143Y5278617D01*
X14991000Y5276855D01*
X15289999D01*
X15298857Y5278617D01*
X15306366Y5283634D01*
X15363081Y5340350D01*
X15368098Y5347858D01*
X15369861Y5356716D01*
Y5362300D01*
X15417700D01*
Y5447700D01*
X15302299D01*
Y5362300D01*
X15302975D01*
X15307835Y5350567D01*
X15290868Y5333598D01*
X15279700Y5340392D01*
X15279700Y5348719D01*
Y5422700D01*
X15207031D01*
X15148145Y5481586D01*
Y5561250D01*
X15146384Y5570107D01*
X15141367Y5577615D01*
X15070645Y5648336D01*
Y5662300D01*
X15087700D01*
X15087700Y5662300D01*
Y5662299D01*
X15087700Y5662300D01*
X15099496Y5660117D01*
X15105814Y5653801D01*
X15121506Y5647300D01*
X15138493D01*
X15154187Y5653801D01*
X15166199Y5665813D01*
X15166631Y5666855D01*
X15189999D01*
X15190001Y5666856D01*
X15203854D01*
Y5612700D01*
X15174300D01*
Y5527300D01*
X15279700D01*
Y5546855D01*
X15302299D01*
Y5512300D01*
X15417700D01*
Y5597700D01*
X15302299D01*
Y5593145D01*
X15279700D01*
Y5612700D01*
X15250145D01*
Y5690000D01*
Y5807852D01*
X15248383Y5816710D01*
X15243365Y5824218D01*
X15117912Y5949671D01*
X15124168Y5961376D01*
X15125000Y5961211D01*
X15134624Y5963125D01*
X15142783Y5968576D01*
X15148233Y5976734D01*
X15150146Y5986358D01*
Y6043393D01*
X15155846Y6050336D01*
X15238306D01*
Y6099664D01*
X15238307Y6099664D01*
X15238307D01*
X15242616Y6110831D01*
X15243752Y6112529D01*
X15244243Y6115000D01*
X15185126D01*
Y6135000D01*
X15244455D01*
X15250584Y6145236D01*
X15252087Y6146942D01*
X15260822Y6147905D01*
X15364879Y6043847D01*
Y5970205D01*
X15364879Y5970204D01*
X15366968Y5959703D01*
X15372916Y5950801D01*
X15413831Y5909887D01*
X15413831Y5909886D01*
X15422733Y5903938D01*
X15433234Y5901849D01*
X15433235Y5901849D01*
X15462572D01*
X15465031Y5899390D01*
X15465237Y5898352D01*
X15471185Y5889451D01*
X15489153Y5871484D01*
X15498055Y5865536D01*
X15498186Y5865510D01*
X15504800Y5858895D01*
Y5812300D01*
X15640199D01*
Y5873265D01*
X15651933Y5878125D01*
X15661757Y5868301D01*
Y5800001D01*
X15661757Y5800000D01*
X15663907Y5789192D01*
X15670029Y5780029D01*
X15720029Y5730030D01*
X15720030Y5730029D01*
X15729192Y5723907D01*
X15739999Y5721757D01*
X16149998D01*
X16150000Y5721757D01*
X16160808Y5723907D01*
X16169971Y5730029D01*
X16321698Y5881757D01*
X16448029D01*
X16460001Y5879999D01*
Y5840000D01*
X16537500D01*
Y5820000D01*
X16460001D01*
Y5780000D01*
X16482652D01*
X16486446Y5767300D01*
X16476672Y5754563D01*
X16469366Y5736926D01*
X16468192Y5728000D01*
X16595001D01*
Y5718001D01*
X16605000D01*
Y5644874D01*
X16650000D01*
X16668925Y5647366D01*
X16686563Y5654671D01*
X16701707Y5666292D01*
X16709155Y5675999D01*
X16721855Y5671687D01*
Y5620200D01*
X16682300D01*
Y5459800D01*
X16807700D01*
Y5620200D01*
X16768146D01*
Y5915000D01*
X16766383Y5923857D01*
X16761366Y5931366D01*
X16656125Y6036606D01*
X16661386Y6049306D01*
X16700024D01*
X16706355Y6034020D01*
X16718369Y6022008D01*
X16734062Y6015507D01*
X16751048D01*
X16766743Y6022008D01*
X16778754Y6034020D01*
X16785255Y6049714D01*
Y6066701D01*
X16778754Y6082395D01*
X16766743Y6094406D01*
X16765366Y6094977D01*
X16764011Y6109285D01*
X16800668Y6145944D01*
X16806238Y6154279D01*
X16808194Y6164112D01*
Y6215888D01*
X16806238Y6225721D01*
X16800668Y6234056D01*
X16764056Y6270668D01*
X16755721Y6276238D01*
X16745888Y6278194D01*
X16676694D01*
X16666862Y6276238D01*
X16658527Y6270668D01*
X16638551Y6250694D01*
X16607700D01*
Y6301855D01*
X16650000D01*
X16658858Y6303617D01*
X16666367Y6308634D01*
X16679587Y6321855D01*
X16735001D01*
X16743857Y6323617D01*
X16751366Y6328634D01*
X16796365Y6373634D01*
X16801382Y6381143D01*
X16803145Y6390000D01*
Y6665413D01*
X16928867Y6791134D01*
X16933884Y6798643D01*
X16934612Y6802300D01*
X17050200D01*
Y6927700D01*
X16889799D01*
Y6827236D01*
X16889355Y6825000D01*
Y6817087D01*
X16763634Y6691366D01*
X16758617Y6683857D01*
X16756854Y6675000D01*
Y6399587D01*
X16725414Y6368145D01*
X16670000D01*
X16661143Y6366383D01*
X16653635Y6361366D01*
X16640413Y6348145D01*
X16607700D01*
Y6392248D01*
X16620399Y6397559D01*
X16635512Y6391300D01*
X16654488D01*
X16672020Y6398562D01*
X16685439Y6411980D01*
X16692700Y6429512D01*
Y6448488D01*
X16685439Y6466020D01*
X16672020Y6479438D01*
X16654488Y6486700D01*
X16635512D01*
X16627699Y6483464D01*
X16614999Y6491950D01*
Y6508874D01*
X16650000D01*
X16668925Y6511366D01*
X16686563Y6518671D01*
X16701707Y6530292D01*
X16713329Y6545437D01*
X16720634Y6563073D01*
X16721809Y6571999D01*
X16595001D01*
X16468192D01*
X16469366Y6563073D01*
X16476672Y6545437D01*
X16486446Y6532700D01*
X16482652Y6520000D01*
X16460001D01*
Y6480000D01*
X16537500D01*
Y6460000D01*
X16460001D01*
Y6420000D01*
X16448029Y6418243D01*
X16410001D01*
X16399191Y6416093D01*
X16390028Y6409971D01*
X16343301Y6363243D01*
X16312700D01*
Y6387700D01*
X16288243D01*
Y6417300D01*
X16332700D01*
Y6602700D01*
X16187300D01*
Y6417300D01*
X16231757D01*
Y6387700D01*
X16207300D01*
Y6363243D01*
X16159499D01*
X16159499Y6363243D01*
X16148689Y6361093D01*
X16139526Y6354971D01*
X16094434Y6309877D01*
X16082700Y6314737D01*
Y6387700D01*
X16058243D01*
Y6417300D01*
X16102699D01*
Y6602700D01*
X16058243D01*
Y7057300D01*
X16207700D01*
Y7121757D01*
X16298302D01*
X16387300Y7032759D01*
Y6967300D01*
X16394035D01*
X16395000Y6955000D01*
X16395000Y6954600D01*
Y6900000D01*
X16495000D01*
Y6955000D01*
X16493665D01*
X16492700Y6967300D01*
X16492700Y6967700D01*
Y7072700D01*
X16427242D01*
X16329970Y7169971D01*
X16320808Y7176093D01*
X16309999Y7178243D01*
X16309998Y7178243D01*
X16207700D01*
Y7242700D01*
X15852299D01*
Y7178243D01*
X15570732D01*
Y7190000D01*
X15566643Y7210562D01*
X15554996Y7227994D01*
X15537563Y7239642D01*
X15517000Y7243732D01*
D02*
G37*
G36*
X14489999Y5935000D02*
X14380000D01*
Y5872500D01*
X14489999D01*
Y5935000D01*
D02*
G37*
G36*
X14360001D02*
X14250000D01*
Y5872500D01*
X14360001D01*
Y5935000D01*
D02*
G37*
G36*
X14370000Y5862500D02*
D01*
D01*
D01*
D02*
G37*
G36*
X14489999Y5852500D02*
X14380000D01*
Y5790000D01*
X14489999D01*
Y5852500D01*
D02*
G37*
G36*
X17050000Y5791126D02*
X17020000D01*
Y5728000D01*
X17121809D01*
X17120634Y5736926D01*
X17113329Y5754563D01*
X17101707Y5769708D01*
X17086563Y5781329D01*
X17068925Y5788634D01*
X17050000Y5791126D01*
D02*
G37*
G36*
X17000000D02*
X16970000D01*
X16951074Y5788634D01*
X16933437Y5781329D01*
X16918294Y5769708D01*
X16906673Y5754563D01*
X16899367Y5736926D01*
X16898190Y5728000D01*
X17000000D01*
Y5791126D01*
D02*
G37*
G36*
X17121809Y5708001D02*
X17020000D01*
Y5644874D01*
X17050000D01*
X17068925Y5647366D01*
X17086563Y5654671D01*
X17101707Y5666292D01*
X17113329Y5681437D01*
X17120634Y5699074D01*
X17121809Y5708001D01*
D02*
G37*
G36*
X17000000D02*
X16898190D01*
X16899367Y5699074D01*
X16906673Y5681437D01*
X16918294Y5666292D01*
X16933437Y5654671D01*
X16951074Y5647366D01*
X16970000Y5644874D01*
X17000000D01*
Y5708001D01*
D02*
G37*
G36*
X16585001D02*
X16468192D01*
X16469366Y5699074D01*
X16476672Y5681437D01*
X16488293Y5666292D01*
X16503436Y5654671D01*
X16521074Y5647366D01*
X16539999Y5644874D01*
X16585001D01*
Y5708001D01*
D02*
G37*
G36*
X16625000Y5627500D02*
X16564999D01*
Y5550000D01*
X16625000D01*
Y5627500D01*
D02*
G37*
G36*
X16545000D02*
X16485001D01*
Y5550000D01*
X16545000D01*
Y5627500D01*
D02*
G37*
G36*
X16625000Y5530000D02*
X16564999D01*
Y5452500D01*
X16625000D01*
Y5530000D01*
D02*
G37*
G36*
X16545000D02*
X16485001D01*
Y5452500D01*
X16545000D01*
Y5530000D01*
D02*
G37*
%LPD*%
G36*
X14752299Y6704418D02*
Y6642300D01*
X14867700D01*
Y6661855D01*
X14882300D01*
Y6642300D01*
X14916855D01*
Y6580000D01*
X14918617Y6571143D01*
X14911571Y6558830D01*
X14773901D01*
X14703145Y6629587D01*
Y6642300D01*
X14737700D01*
Y6711491D01*
X14739600Y6712404D01*
X14752299Y6704418D01*
D02*
G37*
G36*
X15176112Y6459883D02*
X15191808Y6453383D01*
X15208794D01*
X15224487Y6459883D01*
X15231903Y6467298D01*
X15322301D01*
Y6442300D01*
X15346758D01*
Y6422700D01*
X15322301D01*
Y6357242D01*
X15318301Y6353243D01*
X15185126D01*
X15174316Y6351093D01*
X15172900Y6350147D01*
X15161810D01*
X15154305Y6354305D01*
X15150146Y6361811D01*
Y6382378D01*
X15150694Y6385125D01*
X15150558Y6385808D01*
Y6418594D01*
X15150957Y6419192D01*
X15153107Y6430000D01*
Y6466296D01*
X15157748Y6468660D01*
X15165807Y6470190D01*
X15176112Y6459883D01*
D02*
G37*
G36*
X16467300Y6297300D02*
Y6213907D01*
X16465829Y6201651D01*
X16455328Y6199562D01*
X16453217Y6198150D01*
X16412132D01*
X16412131Y6198151D01*
X16401630Y6196062D01*
X16392728Y6190114D01*
X16392728Y6190113D01*
X16332700Y6130086D01*
X16320000Y6135346D01*
Y6175000D01*
X16270000D01*
Y6125000D01*
X16309653D01*
X16314914Y6112300D01*
X16200764Y5998150D01*
X15958728D01*
X15958151Y5998727D01*
Y6002041D01*
X15956062Y6012541D01*
X15950114Y6021443D01*
X15950113Y6021443D01*
X15918942Y6052614D01*
X15910040Y6058562D01*
X15899541Y6060651D01*
X15890199Y6068521D01*
Y6087700D01*
X15754800D01*
Y6002300D01*
X15747501Y6000000D01*
Y5960000D01*
X15822501D01*
Y5940000D01*
X15747501D01*
Y5900000D01*
X15754800Y5897699D01*
Y5812300D01*
X15890199D01*
Y5831478D01*
X15899541Y5839349D01*
X15910040Y5841438D01*
X15918942Y5847386D01*
X15950113Y5878556D01*
X15950114Y5878557D01*
X15956062Y5887459D01*
X15958151Y5897959D01*
Y5901272D01*
X15958728Y5901849D01*
X16229288D01*
X16229288Y5901849D01*
X16239787Y5903938D01*
X16248689Y5909886D01*
X16440654Y6101849D01*
X16453217D01*
X16455328Y6100438D01*
X16465829Y6098349D01*
X16467300Y6086093D01*
Y6047300D01*
Y5938243D01*
X16310001D01*
X16310001Y5938243D01*
X16299191Y5936093D01*
X16290028Y5929971D01*
X16290028Y5929970D01*
X16138301Y5778243D01*
X15751698D01*
X15718243Y5811699D01*
Y5879999D01*
X15718243Y5880000D01*
X15716093Y5890808D01*
X15709972Y5899971D01*
X15709970Y5899971D01*
X15658318Y5951625D01*
Y5953878D01*
X15719971Y6015532D01*
X15726093Y6024695D01*
X15728242Y6035503D01*
X15728242Y6035504D01*
Y6098301D01*
X15861699Y6231757D01*
X15970000D01*
Y6195000D01*
X16030000D01*
X16089999D01*
Y6232851D01*
X16095306Y6233907D01*
X16104468Y6240029D01*
X16171196Y6306757D01*
X16207300D01*
Y6282300D01*
X16312700D01*
Y6306757D01*
X16354999D01*
X16355000Y6306757D01*
X16365808Y6308907D01*
X16374971Y6315029D01*
X16421700Y6361757D01*
X16467300D01*
Y6297300D01*
D02*
G37*
G36*
X15631757Y6528302D02*
Y6450001D01*
X15631757Y6450000D01*
X15633907Y6439192D01*
X15640028Y6430029D01*
X15801283Y6268774D01*
Y6251225D01*
X15680029Y6129971D01*
X15673907Y6120808D01*
X15671758Y6110000D01*
X15671758Y6109999D01*
Y6047202D01*
X15651933Y6027378D01*
X15640199Y6032238D01*
Y6087700D01*
X15504800D01*
Y6041105D01*
X15498186Y6034489D01*
X15498055Y6034463D01*
X15489153Y6028516D01*
X15473880Y6013243D01*
X15463263Y6016429D01*
X15461180Y6017975D01*
Y6072369D01*
X15461180Y6072370D01*
X15459093Y6082870D01*
X15453143Y6091772D01*
X15304802Y6240114D01*
X15295900Y6246062D01*
X15285400Y6248151D01*
X15285397Y6248151D01*
X15239478D01*
X15238553Y6249191D01*
X15233852Y6260851D01*
X15236874Y6265377D01*
X15238789Y6275000D01*
X15236987Y6284057D01*
X15236937Y6284728D01*
X15244041Y6296757D01*
X15329999D01*
X15330000Y6296757D01*
X15340810Y6298907D01*
X15349971Y6305029D01*
X15362242Y6317300D01*
X15427699D01*
Y6422700D01*
X15403242D01*
Y6442300D01*
X15427699D01*
Y6547700D01*
X15322301D01*
Y6523784D01*
X15237868D01*
X15233318Y6529457D01*
X15239412Y6542157D01*
X15250398D01*
X15250400Y6542157D01*
X15261208Y6544307D01*
X15270370Y6550429D01*
X15309970Y6590029D01*
X15309972Y6590029D01*
X15316093Y6599192D01*
X15318243Y6610000D01*
Y6654717D01*
X15325282Y6661757D01*
X15498302D01*
X15631757Y6528302D01*
D02*
G37*
G36*
X14523718Y6395976D02*
Y6216394D01*
X14525481Y6207537D01*
X14530498Y6200028D01*
X14621616Y6108911D01*
X14617300Y6098494D01*
Y6081507D01*
X14623801Y6065813D01*
X14635812Y6053801D01*
X14643250Y6050720D01*
X14640723Y6038020D01*
X14524712D01*
X14356366Y6206366D01*
X14348857Y6211383D01*
X14339999Y6213145D01*
X14049768D01*
X14046382Y6225781D01*
X14034178Y6246919D01*
X14016919Y6264178D01*
X13995781Y6276382D01*
X13981007Y6280341D01*
X13982680Y6293041D01*
X14257300D01*
Y6282300D01*
X14482700D01*
Y6412700D01*
X14257300D01*
Y6339330D01*
X13976602D01*
X13974930Y6352030D01*
X13995781Y6357618D01*
X14016919Y6369822D01*
X14034178Y6387081D01*
X14046382Y6408219D01*
X14052699Y6431796D01*
Y6446856D01*
X14472839D01*
X14523718Y6395976D01*
D02*
G37*
%LPC*%
G36*
X16320000Y6245000D02*
X16270000D01*
Y6195000D01*
X16320000D01*
Y6245000D01*
D02*
G37*
G36*
X16250000D02*
X16200000D01*
Y6195000D01*
X16250000D01*
Y6245000D01*
D02*
G37*
G36*
Y6175000D02*
X16200000D01*
Y6125000D01*
X16250000D01*
Y6175000D01*
D02*
G37*
G36*
X16089999D02*
X16039999D01*
Y6125000D01*
X16089999D01*
Y6175000D01*
D02*
G37*
G36*
X16020000D02*
X15970000D01*
Y6125000D01*
X16020000D01*
Y6175000D01*
D02*
G37*
G36*
X15585001Y6555000D02*
X15535001D01*
Y6505000D01*
X15585001D01*
Y6555000D01*
D02*
G37*
G36*
X15514999D02*
X15464999D01*
Y6505000D01*
X15514999D01*
Y6555000D01*
D02*
G37*
G36*
X15585001Y6485000D02*
X15525000D01*
X15464999D01*
Y6442700D01*
X15464999Y6435000D01*
X15464999Y6422300D01*
Y6380000D01*
X15525000D01*
X15585001D01*
Y6422300D01*
X15585001Y6430000D01*
X15585001Y6442700D01*
Y6485000D01*
D02*
G37*
G36*
Y6360000D02*
X15535001D01*
Y6310000D01*
X15585001D01*
Y6360000D01*
D02*
G37*
G36*
X15514999D02*
X15464999D01*
Y6310000D01*
X15514999D01*
Y6360000D01*
D02*
G37*
%LPD*%
D10*
X16537500Y6470000D02*
D03*
Y6390000D02*
D03*
Y5910000D02*
D03*
Y5830000D02*
D03*
D11*
Y6325000D02*
D03*
Y6275000D02*
D03*
Y6225000D02*
D03*
Y6175000D02*
D03*
Y5975000D02*
D03*
Y6025000D02*
D03*
Y6075000D02*
D03*
Y6125000D02*
D03*
D12*
X16030000Y7150000D02*
D03*
D13*
X16260001Y6510000D02*
D03*
X16030000D02*
D03*
X15800000D02*
D03*
D14*
X14370000Y5862500D02*
D03*
Y5417500D02*
D03*
Y6792500D02*
D03*
Y6347500D02*
D03*
D15*
X14680000Y6835000D02*
D03*
Y6685000D02*
D03*
X14810001Y6835000D02*
D03*
Y6685000D02*
D03*
X14680000Y6280000D02*
D03*
Y6430000D02*
D03*
X15360001Y5555000D02*
D03*
Y5405000D02*
D03*
X14939999Y6685000D02*
D03*
Y6835000D02*
D03*
D16*
X14895000Y5720000D02*
D03*
X15045000D02*
D03*
X16445000Y6890000D02*
D03*
X16595000D02*
D03*
D17*
X16970000Y6865000D02*
D03*
Y7055000D02*
D03*
D18*
X16745000Y5540000D02*
D03*
X16555000D02*
D03*
D19*
X15025000Y5475000D02*
D03*
X15227000Y5570000D02*
D03*
Y5380000D02*
D03*
X14699001Y5475000D02*
D03*
X14900999Y5570000D02*
D03*
Y5380000D02*
D03*
D20*
X15125000Y6014875D02*
D03*
X15075000D02*
D03*
X15025000D02*
D03*
X14975000D02*
D03*
X14925000D02*
D03*
X14875000D02*
D03*
Y6385125D02*
D03*
X14925000D02*
D03*
X14975000D02*
D03*
X15025000D02*
D03*
X15075000D02*
D03*
X15125000D02*
D03*
D21*
X14814874Y6075000D02*
D03*
Y6125000D02*
D03*
Y6175000D02*
D03*
Y6225000D02*
D03*
Y6275000D02*
D03*
Y6325000D02*
D03*
X15185126D02*
D03*
Y6275000D02*
D03*
Y6225000D02*
D03*
Y6175000D02*
D03*
Y6125000D02*
D03*
D22*
Y6075000D02*
D03*
D23*
X15000000Y6200000D02*
D03*
D24*
X15572501Y5950000D02*
D03*
Y6045000D02*
D03*
X15822501D02*
D03*
Y5950000D02*
D03*
Y5855000D02*
D03*
X15572501D02*
D03*
D25*
X16600000Y7020000D02*
D03*
X16439999D02*
D03*
X15525000Y6495000D02*
D03*
X15375000D02*
D03*
X15525000Y6370000D02*
D03*
X15375000D02*
D03*
D26*
X15070000Y6685000D02*
D03*
Y6835000D02*
D03*
X15200000Y6685000D02*
D03*
Y6835000D02*
D03*
X16030000Y6185000D02*
D03*
Y6335000D02*
D03*
X16260001Y6185000D02*
D03*
Y6335000D02*
D03*
D27*
X15250000Y6020000D02*
Y6106776D01*
X15185876Y6124249D02*
X15232529D01*
X15250000Y6106776D01*
X15185126Y6125000D02*
X15185876Y6124249D01*
X15075000Y6125000D02*
X15185126D01*
X15000000Y6200000D02*
X15075000Y6125000D01*
X14975752Y5982532D02*
X14982285Y5976000D01*
Y5967716D02*
Y5976000D01*
X14975752Y5982532D02*
Y6014124D01*
X14982285Y5967716D02*
X15039999Y5910000D01*
X14975000Y6014875D02*
X14975752Y6014124D01*
X15130000Y5690000D02*
X15189999D01*
X15189999Y5690000D01*
X15227000D01*
X13906186Y6316186D02*
X14338686D01*
X14370000Y6347500D01*
X13810001Y5860000D02*
Y6220000D01*
X13906186Y6316186D01*
X14339999Y6190000D02*
X14515125Y6014875D01*
X14875000D01*
X14482426Y6470000D02*
X14546863Y6405563D01*
Y6216394D02*
X14644203Y6119055D01*
X14546863Y6216394D02*
Y6405563D01*
X14604999Y6233345D02*
Y6457427D01*
X14654289Y6184055D02*
X14664055D01*
X14604999Y6233345D02*
X14654289Y6184055D01*
X13986000Y6470000D02*
X14482426D01*
X13960001Y6444000D02*
X13986000Y6470000D01*
X14040504Y6671212D02*
X14041716Y6670000D01*
X13960001Y6698000D02*
X13986787Y6671212D01*
X14040504D01*
X14041716Y6670000D02*
X14392426D01*
X14604999Y6457427D01*
X14660001Y6090000D02*
Y6100824D01*
X14644203Y6116621D02*
Y6119055D01*
Y6116621D02*
X14660001Y6100824D01*
X14730000Y6225000D02*
X14814874D01*
X14680000Y6275000D02*
X14730000Y6225000D01*
X14942348Y5857654D02*
Y5902654D01*
X14925000Y5920001D02*
Y6014875D01*
X14942348Y5857654D02*
X14950000Y5850000D01*
X14925000Y5920001D02*
X14942348Y5902654D01*
X14919940Y6535686D02*
X15024248Y6431377D01*
X14680000Y6620000D02*
X14764314Y6535686D01*
X14919940D01*
X13960001Y6190000D02*
X14339999D01*
X14875000Y5740000D02*
Y6014875D01*
Y5740000D02*
X14895000Y5720000D01*
X15075751Y5959101D02*
Y6014124D01*
X15075000Y6014875D02*
X15075751Y6014124D01*
X15227000Y5690000D02*
Y5807852D01*
X15075751Y5959101D02*
X15227000Y5807852D01*
X13810001Y5860000D02*
X13960001Y5710000D01*
Y5682000D02*
Y5710000D01*
X14798602Y5748603D02*
X14800000Y5750000D01*
X14261398Y5748603D02*
X14798602D01*
X15227000Y5570000D02*
Y5690000D01*
X14074001Y5936000D02*
X14261398Y5748603D01*
X13960001Y5936000D02*
X14074001D01*
X16537500Y6325000D02*
X16650000D01*
X16735001Y6345000D02*
X16780000Y6390000D01*
X16650000Y6325000D02*
X16670000Y6345000D01*
X16735001D01*
X16537500Y6025000D02*
X16635001D01*
X16745000Y5915000D01*
X16595000Y6890000D02*
Y7015000D01*
X16600000Y7020000D01*
X16780000Y6390000D02*
Y6675000D01*
X16912500Y6807500D01*
X16952499Y6865000D02*
X16970000D01*
X16912500Y6825000D02*
X16952499Y6865000D01*
X16912500Y6807500D02*
Y6825000D01*
X16745000Y5540000D02*
Y5915000D01*
X14991000Y5300000D02*
X15289999D01*
X14911000Y5380000D02*
X14991000Y5300000D01*
X15074248Y6385876D02*
X15075000Y6385125D01*
X15074248Y6385876D02*
Y6445752D01*
X14939999Y6580000D02*
X15074248Y6445752D01*
X14482001Y5682000D02*
X14689000Y5475000D01*
X14699001D01*
X13960001Y5682000D02*
X14482001D01*
X14359500Y5428000D02*
X14397501Y5390000D01*
X14780000D02*
X14864999Y5475000D01*
X14397501Y5390000D02*
X14780000D01*
X13960001Y5428000D02*
X14359500D01*
X14864999Y5475000D02*
X15025000D01*
X14680000Y6620000D02*
Y6685000D01*
X15024248Y6385876D02*
Y6431377D01*
Y6385876D02*
X15025000Y6385125D01*
X14810001Y6685000D02*
X14939999D01*
Y6580000D02*
Y6685000D01*
X15346716Y5356716D02*
Y5391716D01*
X15360001Y5405000D01*
X15289999Y5300000D02*
X15346716Y5356716D01*
X15345000Y5570000D02*
X15360001Y5555000D01*
X15227000Y5570000D02*
X15345000D01*
X14900999Y5380000D02*
X14911000D01*
X15047501Y5638750D02*
Y5710000D01*
Y5638750D02*
X15125000Y5561250D01*
X14900999Y5570000D02*
Y5701500D01*
X14875999Y5380000D02*
X14886000D01*
X15125000Y5472000D02*
Y5561250D01*
Y5472000D02*
X15217000Y5380000D01*
X15227000D01*
D28*
X15821529Y5949029D02*
X15822501Y5950000D01*
X15717313Y5949029D02*
X15821529D01*
X15716341Y5948058D02*
X15717313Y5949029D01*
X16159499Y6335000D02*
X16260001D01*
X16084499Y6260000D02*
X16159499Y6335000D01*
X15739999Y5750000D02*
X16150000D01*
X16310001Y5910000D02*
X16537500D01*
X16150000Y5750000D02*
X16310001Y5910000D01*
X15689999Y5800000D02*
X15739999Y5750000D01*
X15689999Y5800000D02*
Y5880000D01*
X15630074Y5938870D02*
Y5970000D01*
X15600000Y5950000D02*
Y5952499D01*
X15626852Y5935648D02*
X15630074Y5938870D01*
X15625073Y5965000D02*
X15630074Y5970000D01*
X15572501Y5950000D02*
X15600000D01*
X15634497Y5970000D02*
X15700000Y6035503D01*
Y6110000D01*
X15587500Y5935000D02*
X15635001D01*
X15700000Y6110000D02*
X15850000Y6260000D01*
X15612500Y5965000D02*
X15625073D01*
X15630074Y5970000D02*
X15634497D01*
X15600000Y5952499D02*
X15612500Y5965000D01*
X15572501Y5950000D02*
X15587500Y5935000D01*
X15635001D02*
X15689999Y5880000D01*
X14710001Y6798721D02*
X14737086Y6771634D01*
Y6763517D02*
Y6771634D01*
X14680000Y6835000D02*
X14695000D01*
X14710001Y6820000D01*
Y6798721D02*
Y6820000D01*
X15374458Y6495541D02*
X15375000Y6495000D01*
X15200842Y6495541D02*
X15374458D01*
X15200301Y6496083D02*
X15200842Y6495541D01*
X15829527Y6280473D02*
X15850000Y6260000D01*
X15660001Y6450000D02*
X15829527Y6280473D01*
Y6246102D02*
Y6280473D01*
X15185126Y6278287D02*
Y6325000D01*
X15292308Y6711276D02*
X15313583Y6690000D01*
X15292308Y6711276D02*
Y6712799D01*
X15510001Y6690000D02*
X15660001Y6540000D01*
Y6450000D02*
Y6540000D01*
X15850000Y6260000D02*
X16084499D01*
X15294196Y6670611D02*
X15313583Y6690000D01*
X15289999Y6610000D02*
Y6700000D01*
X15313583Y6690000D02*
X15510001D01*
X15300000D02*
X15313583D01*
X15289999Y6700000D02*
Y6745000D01*
X14939999Y6835000D02*
X15200000D01*
X15200000Y6835000D02*
X15289999Y6745000D01*
X16260001Y6335000D02*
Y6510000D01*
X15289999Y6700000D02*
X15300000Y6690000D01*
X15200000Y6835000D02*
X15211501Y6846500D01*
Y7138500D01*
X15223000Y7150000D01*
X16309999Y7150000D02*
X16439999Y7020000D01*
X16030000Y7150000D02*
X16309999D01*
X16030000Y6510000D02*
Y7150000D01*
X15477000Y7150000D02*
X16030000D01*
X16030000Y7150000D01*
X16355000Y6335000D02*
X16410001Y6390000D01*
X16537500D01*
X16260001Y6335000D02*
X16355000D01*
X15124864Y6430000D02*
Y6514864D01*
X15180400Y6570400D01*
X15250400D02*
X15289999Y6610000D01*
X15180400Y6570400D02*
X15250400D01*
X15200000Y6835000D02*
X15200000Y6835000D01*
X15375000Y6370000D02*
Y6495000D01*
X15185126Y6325000D02*
X15330000D01*
X15375000Y6370000D01*
X16030000Y6335000D02*
Y6510000D01*
D29*
X15930711Y5987362D02*
X15947362Y5970711D01*
X15899541Y5866788D02*
X15930711Y5897959D01*
X15822501Y5855000D02*
X15834288Y5866788D01*
X15822501Y6045000D02*
X15834288Y6033211D01*
X15930711Y5897959D02*
Y5912638D01*
X15834288Y5866788D02*
X15899541D01*
Y6033211D02*
X15930711Y6002041D01*
X16212131Y5970711D02*
X16412131Y6170712D01*
X16462329D01*
X15947362Y5929288D02*
X16229288D01*
X15947362Y5970711D02*
X16212131D01*
X15930711Y5912638D02*
X15947362Y5929288D01*
X15834288Y6033211D02*
X15899541D01*
X16229288Y5929288D02*
X16429288Y6129288D01*
X16462329D01*
X15930711Y5987362D02*
Y6002041D01*
X15285400Y6220712D02*
X15433742Y6072370D01*
Y5987362D02*
Y6072370D01*
X15450392Y5970711D02*
X15473938D01*
X15490588Y5987362D01*
X15185126Y6175000D02*
X15187372Y6177248D01*
X15508554Y6009113D02*
X15511613D01*
X15217931Y6179288D02*
X15268242D01*
X15215891Y6177248D02*
X15217931Y6179288D01*
X15187372Y6177248D02*
X15215891D01*
Y6222752D02*
X15217931Y6220712D01*
X15187372Y6222752D02*
X15215891D01*
X15185126Y6225000D02*
X15187372Y6222752D01*
X15268242Y6179288D02*
X15392319Y6055212D01*
X15511613Y6009113D02*
X15547501Y6045000D01*
X15490588Y5908853D02*
X15508554Y5890886D01*
X15433234Y5929288D02*
X15473938D01*
X15490588Y5912638D01*
Y5987362D02*
Y5991147D01*
X15392319Y5970204D02*
Y6055212D01*
X15490588Y5991147D02*
X15508554Y6009113D01*
Y5890886D02*
X15511613D01*
X15547501Y5855000D01*
X15572501D01*
X15217931Y6220712D02*
X15285400D01*
X15490588Y5908853D02*
Y5912638D01*
X15392319Y5970204D02*
X15433234Y5929288D01*
X15547501Y6045000D02*
X15572501D01*
X15433742Y5987362D02*
X15450392Y5970711D01*
X16462329Y6170712D02*
X16465829Y6174212D01*
X16536713D01*
X16462329Y6129288D02*
X16465829Y6125788D01*
X16536713D01*
D30*
X16733084Y6058207D02*
X16742555D01*
X16716292Y6075000D02*
X16733084Y6058207D01*
X16537500Y6075000D02*
X16716292D01*
X16535001Y6127500D02*
X16536713Y6125788D01*
X16541251Y6123750D02*
X16742139D01*
X16539999Y6122500D02*
X16541251Y6123750D01*
X16536713Y6125788D02*
X16537500Y6125000D01*
X16539999Y6122500D01*
X16742139Y6123750D02*
X16782500Y6164112D01*
X16536713Y6174212D02*
X16537500Y6175000D01*
X16535001Y6172500D02*
X16536713Y6174212D01*
X16695529Y6175000D02*
X16710529Y6190000D01*
X16537500Y6175000D02*
X16695529D01*
X16710529Y6190000D02*
X16720000D01*
X16649194Y6225000D02*
X16676694Y6252500D01*
X16537500Y6225000D02*
X16649194D01*
X16782500Y6164112D02*
Y6215888D01*
X16745888Y6252500D02*
X16782500Y6215888D01*
X16676694Y6252500D02*
X16745888D01*
X15124864Y6385261D02*
Y6430000D01*
Y6385261D02*
X15125000Y6385125D01*
D31*
X16595000Y6582000D02*
D03*
Y5718000D02*
D03*
D32*
X17010001Y6582000D02*
D03*
Y5718000D02*
D03*
D33*
X16645000Y6439000D02*
D03*
Y5861000D02*
D03*
D34*
X13960001Y6952000D02*
D03*
Y6698000D02*
D03*
Y6190000D02*
D03*
Y5682000D02*
D03*
Y5936000D02*
D03*
Y6444000D02*
D03*
X15223000Y7150000D02*
D03*
D35*
X13960001Y5428000D02*
D03*
D36*
X15477000Y7150000D02*
D03*
D37*
X16360001Y6240000D02*
D03*
X16742555Y6058207D02*
D03*
X15716341Y5948058D02*
D03*
X15130000Y5690000D02*
D03*
X14737086Y6763517D02*
D03*
X15200301Y6496083D02*
D03*
X14664055Y6184055D02*
D03*
X14660001Y6090000D02*
D03*
X14950000Y5850000D02*
D03*
X14789999Y6440000D02*
D03*
X15039999Y5910000D02*
D03*
X14800000Y5750000D02*
D03*
X15920000Y6180000D02*
D03*
X16720000Y6190000D02*
D03*
X15860001Y6370000D02*
D03*
X15800000Y6630000D02*
D03*
X16360001Y5830000D02*
D03*
X14810001Y6930000D02*
D03*
X15088251Y6582216D02*
D03*
X15620000Y6370000D02*
D03*
X16439999Y5540000D02*
D03*
X16410001Y6470000D02*
D03*
X17110001Y7060000D02*
D03*
X16439999Y6780000D02*
D03*
X14370000Y5980000D02*
D03*
Y6910000D02*
D03*
%TF.MD5,61212629c47e4875832c7b4df95ebe54*%
M02*
