%TF.GenerationSoftware,Altium Limited,Altium Designer,24.1.2 (44)*%
G04 Layer_Physical_Order=2*
G04 Layer_Color=16711680*
%FSLAX45Y45*%
%MOMM*%
%TF.SameCoordinates,66D67B9E-EE8B-469C-A6B4-FAA81B9CD0F6*%
%TF.FilePolarity,Positive*%
%TF.FileFunction,Copper,L2,Bot,Signal*%
%TF.Part,Single*%
G01*
G75*
%TA.AperFunction,Conductor*%
%ADD27C,0.20000*%
%ADD28C,0.30000*%
%ADD30C,0.25000*%
%TA.AperFunction,ComponentPad*%
%ADD31O,2.15000X1.05000*%
%ADD32O,1.85000X1.05000*%
%ADD33C,0.70000*%
%ADD34C,1.60000*%
G04:AMPARAMS|DCode=35|XSize=1.6mm|YSize=1.6mm|CornerRadius=0.4mm|HoleSize=0mm|Usage=FLASHONLY|Rotation=90.000|XOffset=0mm|YOffset=0mm|HoleType=Round|Shape=RoundedRectangle|*
%AMROUNDEDRECTD35*
21,1,1.60000,0.80000,0,0,90.0*
21,1,0.80000,1.60000,0,0,90.0*
1,1,0.80000,0.40000,0.40000*
1,1,0.80000,0.40000,-0.40000*
1,1,0.80000,-0.40000,-0.40000*
1,1,0.80000,-0.40000,0.40000*
%
%ADD35ROUNDEDRECTD35*%
G04:AMPARAMS|DCode=36|XSize=1.6mm|YSize=1.6mm|CornerRadius=0.4mm|HoleSize=0mm|Usage=FLASHONLY|Rotation=180.000|XOffset=0mm|YOffset=0mm|HoleType=Round|Shape=RoundedRectangle|*
%AMROUNDEDRECTD36*
21,1,1.60000,0.80000,0,0,180.0*
21,1,0.80000,1.60000,0,0,180.0*
1,1,0.80000,-0.40000,0.40000*
1,1,0.80000,0.40000,0.40000*
1,1,0.80000,0.40000,-0.40000*
1,1,0.80000,-0.40000,-0.40000*
%
%ADD36ROUNDEDRECTD36*%
%TA.AperFunction,ViaPad*%
%ADD37C,0.60000*%
G36*
X17180045Y7325120D02*
X17203157Y7315546D01*
X17223956Y7301648D01*
X17241647Y7283958D01*
X17255545Y7263158D01*
X17265118Y7240045D01*
X17270000Y7215509D01*
Y7203001D01*
Y5357000D01*
Y5344491D01*
X17265118Y5319955D01*
X17255545Y5296843D01*
X17241647Y5276042D01*
X17223956Y5258352D01*
X17203156Y5244454D01*
X17180045Y5234880D01*
X17155508Y5230000D01*
X13864491D01*
X13839955Y5234880D01*
X13816843Y5244454D01*
X13796042Y5258352D01*
X13778352Y5276042D01*
X13764455Y5296843D01*
X13754880Y5319955D01*
X13750000Y5344491D01*
Y5357000D01*
Y7203000D01*
Y7215509D01*
X13754880Y7240045D01*
X13764455Y7263157D01*
X13778352Y7283958D01*
X13796042Y7301647D01*
X13816843Y7315546D01*
X13839955Y7325119D01*
X13864491Y7330000D01*
X13877000D01*
X17142999Y7330000D01*
X17155508D01*
X17180045Y7325120D01*
D02*
G37*
%LPC*%
G36*
X15235204Y7242700D02*
X15210796D01*
X15187219Y7236382D01*
X15166081Y7224178D01*
X15148822Y7206919D01*
X15136618Y7185781D01*
X15130299Y7162204D01*
Y7137796D01*
X15136618Y7114219D01*
X15148822Y7093081D01*
X15166081Y7075822D01*
X15187219Y7063618D01*
X15210796Y7057300D01*
X15235204D01*
X15258781Y7063618D01*
X15279919Y7075822D01*
X15297179Y7093081D01*
X15309383Y7114219D01*
X15315700Y7137796D01*
Y7162204D01*
X15309383Y7185781D01*
X15297179Y7206919D01*
X15279919Y7224178D01*
X15258781Y7236382D01*
X15235204Y7242700D01*
D02*
G37*
G36*
X15517000Y7243732D02*
X15437000D01*
X15416438Y7239642D01*
X15399007Y7227994D01*
X15387358Y7210562D01*
X15383269Y7190000D01*
Y7110000D01*
X15387358Y7089437D01*
X15399007Y7072005D01*
X15416438Y7060358D01*
X15437000Y7056268D01*
X15517000D01*
X15537563Y7060358D01*
X15554996Y7072005D01*
X15566643Y7089437D01*
X15570732Y7110000D01*
Y7190000D01*
X15566643Y7210562D01*
X15554996Y7227994D01*
X15537563Y7239642D01*
X15517000Y7243732D01*
D02*
G37*
G36*
X13973164Y7052000D02*
X13970001D01*
Y6962000D01*
X14060001D01*
Y6965165D01*
X14053185Y6990598D01*
X14040021Y7013401D01*
X14021400Y7032020D01*
X13998598Y7045185D01*
X13973164Y7052000D01*
D02*
G37*
G36*
X13950002D02*
X13946835D01*
X13921402Y7045185D01*
X13898599Y7032020D01*
X13879980Y7013401D01*
X13866815Y6990598D01*
X13860001Y6965165D01*
Y6962000D01*
X13950002D01*
Y7052000D01*
D02*
G37*
G36*
X14060001Y6942000D02*
X13970001D01*
Y6852000D01*
X13973164D01*
X13998598Y6858815D01*
X14021400Y6871980D01*
X14040021Y6890599D01*
X14053185Y6913402D01*
X14060001Y6938835D01*
Y6942000D01*
D02*
G37*
G36*
X13950002D02*
X13860001D01*
Y6938835D01*
X13866815Y6913402D01*
X13879980Y6890599D01*
X13898599Y6871980D01*
X13921402Y6858815D01*
X13946835Y6852000D01*
X13950002D01*
Y6942000D01*
D02*
G37*
G36*
X13972205Y6790700D02*
X13947797D01*
X13924219Y6784382D01*
X13903081Y6772178D01*
X13885822Y6754919D01*
X13873618Y6733781D01*
X13867300Y6710204D01*
Y6685796D01*
X13873618Y6662219D01*
X13885822Y6641081D01*
X13903081Y6623822D01*
X13924219Y6611618D01*
X13947797Y6605300D01*
X13972205D01*
X13995781Y6611618D01*
X14016919Y6623822D01*
X14034178Y6641081D01*
X14046382Y6662219D01*
X14052699Y6685796D01*
Y6710204D01*
X14046382Y6733781D01*
X14034178Y6754919D01*
X14016919Y6772178D01*
X13995781Y6784382D01*
X13972205Y6790700D01*
D02*
G37*
G36*
X16650000Y6655125D02*
X16605000D01*
Y6591999D01*
X16721809D01*
X16720634Y6600926D01*
X16713329Y6618563D01*
X16701707Y6633707D01*
X16686563Y6645328D01*
X16668925Y6652634D01*
X16650000Y6655125D01*
D02*
G37*
G36*
X17050000D02*
X17020000D01*
Y6591999D01*
X17121809D01*
X17120634Y6600926D01*
X17113329Y6618563D01*
X17101707Y6633707D01*
X17086563Y6645328D01*
X17068925Y6652634D01*
X17050000Y6655125D01*
D02*
G37*
G36*
X17000000D02*
X16970000D01*
X16951074Y6652634D01*
X16933437Y6645328D01*
X16918294Y6633707D01*
X16906673Y6618563D01*
X16899367Y6600926D01*
X16898190Y6591999D01*
X17000000D01*
Y6655125D01*
D02*
G37*
G36*
X16585001D02*
X16539999D01*
X16521074Y6652634D01*
X16503436Y6645328D01*
X16488293Y6633707D01*
X16476672Y6618563D01*
X16469366Y6600926D01*
X16468192Y6591999D01*
X16585001D01*
Y6655125D01*
D02*
G37*
G36*
X17121809Y6571999D02*
X17020000D01*
Y6508874D01*
X17050000D01*
X17068925Y6511366D01*
X17086563Y6518671D01*
X17101707Y6530292D01*
X17113329Y6545437D01*
X17120634Y6563073D01*
X17121809Y6571999D01*
D02*
G37*
G36*
X17000000D02*
X16898190D01*
X16899367Y6563073D01*
X16906673Y6545437D01*
X16918294Y6530292D01*
X16933437Y6518671D01*
X16951074Y6511366D01*
X16970000Y6508874D01*
X17000000D01*
Y6571999D01*
D02*
G37*
G36*
X16721809D02*
X16605000D01*
Y6508874D01*
X16650000D01*
X16668925Y6511366D01*
X16686563Y6518671D01*
X16701707Y6530292D01*
X16713329Y6545437D01*
X16720634Y6563073D01*
X16721809Y6571999D01*
D02*
G37*
G36*
X16585001D02*
X16468192D01*
X16469366Y6563073D01*
X16476672Y6545437D01*
X16488293Y6530292D01*
X16503436Y6518671D01*
X16521074Y6511366D01*
X16539999Y6508874D01*
X16585001D01*
Y6571999D01*
D02*
G37*
G36*
X14745581Y6806217D02*
X14728593D01*
X14712900Y6799716D01*
X14700888Y6787704D01*
X14694386Y6772010D01*
Y6755023D01*
X14700888Y6739329D01*
X14708844Y6731373D01*
Y6612914D01*
X14708844Y6612913D01*
X14710994Y6602104D01*
X14717116Y6592942D01*
X14833946Y6476112D01*
X14843109Y6469990D01*
X14853917Y6467840D01*
X15168156D01*
X15176112Y6459883D01*
X15191808Y6453383D01*
X15208794D01*
X15224487Y6459883D01*
X15236501Y6471895D01*
X15243001Y6487589D01*
Y6504576D01*
X15236501Y6520270D01*
X15224487Y6532282D01*
X15208794Y6538782D01*
X15191808D01*
X15176112Y6532282D01*
X15168156Y6524325D01*
X14865616D01*
X14765331Y6624611D01*
Y6731373D01*
X14773286Y6739329D01*
X14779787Y6755023D01*
Y6772010D01*
X14773286Y6787704D01*
X14761275Y6799716D01*
X14745581Y6806217D01*
D02*
G37*
G36*
X16654488Y6486700D02*
X16635512D01*
X16617979Y6479438D01*
X16604562Y6466020D01*
X16597301Y6448488D01*
Y6429512D01*
X16604562Y6411980D01*
X16617979Y6398562D01*
X16635512Y6391300D01*
X16654488D01*
X16672020Y6398562D01*
X16685439Y6411980D01*
X16692700Y6429512D01*
Y6448488D01*
X16685439Y6466020D01*
X16672020Y6479438D01*
X16654488Y6486700D01*
D02*
G37*
G36*
X13972205Y6536700D02*
X13947797D01*
X13924219Y6530382D01*
X13903081Y6518178D01*
X13885822Y6500919D01*
X13873618Y6479781D01*
X13867300Y6456204D01*
Y6431796D01*
X13873618Y6408219D01*
X13885822Y6387081D01*
X13903081Y6369822D01*
X13924219Y6357618D01*
X13947797Y6351300D01*
X13972205D01*
X13995781Y6357618D01*
X14016919Y6369822D01*
X14034178Y6387081D01*
X14046382Y6408219D01*
X14052699Y6431796D01*
Y6456204D01*
X14046382Y6479781D01*
X14034178Y6500919D01*
X14016919Y6518178D01*
X13995781Y6530382D01*
X13972205Y6536700D01*
D02*
G37*
G36*
Y6282700D02*
X13947797D01*
X13924219Y6276382D01*
X13903081Y6264178D01*
X13885822Y6246919D01*
X13873618Y6225781D01*
X13867300Y6202204D01*
Y6177796D01*
X13873618Y6154219D01*
X13885822Y6133081D01*
X13903081Y6115822D01*
X13924219Y6103618D01*
X13947797Y6097300D01*
X13972205D01*
X13995781Y6103618D01*
X14016919Y6115822D01*
X14034178Y6133081D01*
X14046382Y6154219D01*
X14052699Y6177796D01*
Y6202204D01*
X14046382Y6225781D01*
X14034178Y6246919D01*
X14016919Y6264178D01*
X13995781Y6276382D01*
X13972205Y6282700D01*
D02*
G37*
G36*
X16728494Y6232700D02*
X16711507D01*
X16695813Y6226199D01*
X16683801Y6214187D01*
X16677299Y6198494D01*
Y6181507D01*
X16683801Y6165813D01*
X16695813Y6153801D01*
X16711507Y6147300D01*
X16716862D01*
Y6092900D01*
X16706355Y6082395D01*
X16699855Y6066701D01*
Y6049714D01*
X16706355Y6034020D01*
X16718369Y6022008D01*
X16734062Y6015507D01*
X16751048D01*
X16766743Y6022008D01*
X16778754Y6034020D01*
X16785255Y6049714D01*
Y6066701D01*
X16778754Y6082395D01*
X16768250Y6092900D01*
Y6157974D01*
X16766293Y6167807D01*
X16760722Y6176142D01*
X16760550Y6176316D01*
X16762700Y6181507D01*
Y6198494D01*
X16756200Y6214187D01*
X16744186Y6226199D01*
X16728494Y6232700D01*
D02*
G37*
G36*
X14672549Y6226755D02*
X14655560D01*
X14639868Y6220254D01*
X14627856Y6208243D01*
X14621355Y6192549D01*
Y6175562D01*
X14627856Y6159868D01*
X14639868Y6147856D01*
X14655560Y6141355D01*
X14672549D01*
X14673592Y6141787D01*
X14921744Y5893634D01*
X14929253Y5888617D01*
X14930872Y5888295D01*
X14925813Y5886199D01*
X14913802Y5874188D01*
X14913370Y5873145D01*
X14879587D01*
X14801971Y5950760D01*
Y5984431D01*
X14800211Y5993288D01*
X14798544Y5995780D01*
X14795192Y6000797D01*
X14746236Y6049754D01*
X14738725Y6054772D01*
X14729869Y6056533D01*
X14726198D01*
X14702267Y6080464D01*
X14702699Y6081507D01*
Y6098494D01*
X14696199Y6114187D01*
X14684187Y6126199D01*
X14668494Y6132700D01*
X14651506D01*
X14635812Y6126199D01*
X14623801Y6114187D01*
X14617300Y6098494D01*
Y6081507D01*
X14623801Y6065813D01*
X14635812Y6053801D01*
X14651506Y6047300D01*
X14668494D01*
X14669536Y6047732D01*
X14700246Y6017023D01*
X14707755Y6012006D01*
X14716611Y6010244D01*
X14720282D01*
X14755682Y5974844D01*
Y5941173D01*
X14757443Y5932316D01*
X14762460Y5924808D01*
X14853635Y5833634D01*
X14861142Y5828617D01*
X14870000Y5826856D01*
X14913370D01*
X14913802Y5825813D01*
X14925813Y5813801D01*
X14941507Y5807300D01*
X14958495D01*
X14974187Y5813801D01*
X14986198Y5825813D01*
X14992700Y5841507D01*
Y5858494D01*
X14986198Y5874188D01*
X14974187Y5886199D01*
X14972604Y5886855D01*
X15003369D01*
X15003801Y5885813D01*
X15015813Y5873801D01*
X15031506Y5867300D01*
X15048492D01*
X15064188Y5873801D01*
X15076199Y5885813D01*
X15082700Y5901507D01*
Y5918494D01*
X15076199Y5934188D01*
X15064188Y5946199D01*
X15048492Y5952700D01*
X15031506D01*
X15015813Y5946199D01*
X15003801Y5934188D01*
X15003369Y5933145D01*
X14947697D01*
X14706323Y6174519D01*
X14706755Y6175562D01*
Y6192549D01*
X14700253Y6208243D01*
X14688242Y6220254D01*
X14672549Y6226755D01*
D02*
G37*
G36*
X13972205Y6028700D02*
X13947797D01*
X13924219Y6022382D01*
X13903081Y6010178D01*
X13885822Y5992919D01*
X13873618Y5971781D01*
X13867300Y5948204D01*
Y5923796D01*
X13873618Y5900219D01*
X13885822Y5879081D01*
X13903081Y5861822D01*
X13924219Y5849618D01*
X13947797Y5843300D01*
X13972205D01*
X13995781Y5849618D01*
X14016919Y5861822D01*
X14034178Y5879081D01*
X14046382Y5900219D01*
X14052699Y5923796D01*
Y5948204D01*
X14046382Y5971781D01*
X14034178Y5992919D01*
X14016919Y6010178D01*
X13995781Y6022382D01*
X13972205Y6028700D01*
D02*
G37*
G36*
X16654488Y5908700D02*
X16635512D01*
X16617979Y5901438D01*
X16604562Y5888020D01*
X16597301Y5870488D01*
Y5851512D01*
X16604562Y5833980D01*
X16617979Y5820562D01*
X16635512Y5813300D01*
X16654488D01*
X16672020Y5820562D01*
X16685439Y5833980D01*
X16692700Y5851512D01*
Y5870488D01*
X16685439Y5888020D01*
X16672020Y5901438D01*
X16654488Y5908700D01*
D02*
G37*
G36*
X16650000Y5791126D02*
X16605000D01*
Y5728000D01*
X16721809D01*
X16720634Y5736926D01*
X16713329Y5754563D01*
X16701707Y5769708D01*
X16686563Y5781329D01*
X16668925Y5788634D01*
X16650000Y5791126D01*
D02*
G37*
G36*
X17050000D02*
X17020000D01*
Y5728000D01*
X17121809D01*
X17120634Y5736926D01*
X17113329Y5754563D01*
X17101707Y5769708D01*
X17086563Y5781329D01*
X17068925Y5788634D01*
X17050000Y5791126D01*
D02*
G37*
G36*
X17000000D02*
X16970000D01*
X16951074Y5788634D01*
X16933437Y5781329D01*
X16918294Y5769708D01*
X16906673Y5754563D01*
X16899367Y5736926D01*
X16898190Y5728000D01*
X17000000D01*
Y5791126D01*
D02*
G37*
G36*
X16585001D02*
X16539999D01*
X16521074Y5788634D01*
X16503436Y5781329D01*
X16488293Y5769708D01*
X16476672Y5754563D01*
X16469366Y5736926D01*
X16468192Y5728000D01*
X16585001D01*
Y5791126D01*
D02*
G37*
G36*
X14808495Y5792700D02*
X14791507D01*
X14775813Y5786199D01*
X14763802Y5774187D01*
X14757300Y5758493D01*
Y5741506D01*
X14763802Y5725813D01*
X14775813Y5713801D01*
X14791507Y5707300D01*
X14808495D01*
X14824188Y5713801D01*
X14836198Y5725813D01*
X14839801Y5734509D01*
X14922760D01*
X14983633Y5673634D01*
X14991142Y5668617D01*
X15000000Y5666855D01*
X15093369D01*
X15093800Y5665813D01*
X15105814Y5653801D01*
X15121506Y5647300D01*
X15138493D01*
X15154187Y5653801D01*
X15166199Y5665813D01*
X15172701Y5681507D01*
Y5698494D01*
X15166199Y5714187D01*
X15154187Y5726199D01*
X15138493Y5732700D01*
X15121506D01*
X15105814Y5726199D01*
X15093800Y5714187D01*
X15093369Y5713145D01*
X15009587D01*
X14948712Y5774019D01*
X14941203Y5779036D01*
X14932347Y5780798D01*
X14829588D01*
X14824188Y5786199D01*
X14808495Y5792700D01*
D02*
G37*
G36*
X17121809Y5708001D02*
X17020000D01*
Y5644874D01*
X17050000D01*
X17068925Y5647366D01*
X17086563Y5654671D01*
X17101707Y5666292D01*
X17113329Y5681437D01*
X17120634Y5699074D01*
X17121809Y5708001D01*
D02*
G37*
G36*
X17000000D02*
X16898190D01*
X16899367Y5699074D01*
X16906673Y5681437D01*
X16918294Y5666292D01*
X16933437Y5654671D01*
X16951074Y5647366D01*
X16970000Y5644874D01*
X17000000D01*
Y5708001D01*
D02*
G37*
G36*
X16721809D02*
X16605000D01*
Y5644874D01*
X16650000D01*
X16668925Y5647366D01*
X16686563Y5654671D01*
X16701707Y5666292D01*
X16713329Y5681437D01*
X16720634Y5699074D01*
X16721809Y5708001D01*
D02*
G37*
G36*
X16585001D02*
X16468192D01*
X16469366Y5699074D01*
X16476672Y5681437D01*
X16488293Y5666292D01*
X16503436Y5654671D01*
X16521074Y5647366D01*
X16539999Y5644874D01*
X16585001D01*
Y5708001D01*
D02*
G37*
G36*
X13972205Y5774700D02*
X13947797D01*
X13924219Y5768382D01*
X13903081Y5756178D01*
X13885822Y5738919D01*
X13873618Y5717781D01*
X13867300Y5694204D01*
Y5669796D01*
X13873618Y5646219D01*
X13885822Y5625081D01*
X13903081Y5607822D01*
X13924219Y5595618D01*
X13947797Y5589300D01*
X13972205D01*
X13995781Y5595618D01*
X14016919Y5607822D01*
X14034178Y5625081D01*
X14046382Y5646219D01*
X14052699Y5669796D01*
Y5694204D01*
X14046382Y5717781D01*
X14034178Y5738919D01*
X14016919Y5756178D01*
X13995781Y5768382D01*
X13972205Y5774700D01*
D02*
G37*
G36*
X14000000Y5521732D02*
X13920000D01*
X13899438Y5517642D01*
X13882005Y5505995D01*
X13870358Y5488563D01*
X13866267Y5468000D01*
Y5388000D01*
X13870358Y5367438D01*
X13882005Y5350006D01*
X13899438Y5338358D01*
X13920000Y5334268D01*
X14000000D01*
X14020563Y5338358D01*
X14037994Y5350006D01*
X14049641Y5367438D01*
X14053732Y5388000D01*
Y5468000D01*
X14049641Y5488563D01*
X14037994Y5505995D01*
X14020563Y5517642D01*
X14000000Y5521732D01*
D02*
G37*
%LPD*%
D27*
X15000000Y5690000D02*
X15130000D01*
X14664055Y6184055D02*
X14938110Y5910000D01*
X14660001Y6090000D02*
X14716611Y6033389D01*
X14729869D01*
X14778827Y5984431D01*
Y5941173D02*
Y5984431D01*
X14938110Y5910000D02*
X15039999D01*
X14778827Y5941173D02*
X14870000Y5850000D01*
X14950000D01*
X14932347Y5757653D02*
X15000000Y5690000D01*
X14807654Y5757653D02*
X14932347D01*
X14800000Y5750000D02*
X14807654Y5757653D01*
D28*
X14737086Y6612913D02*
Y6763517D01*
Y6612913D02*
X14853917Y6496083D01*
X15200301D01*
D30*
X16720000Y6180529D02*
X16742555Y6157974D01*
Y6058207D02*
Y6157974D01*
X16720000Y6180529D02*
Y6190000D01*
D31*
X16595000Y6582000D02*
D03*
Y5718000D02*
D03*
D32*
X17010001Y6582000D02*
D03*
Y5718000D02*
D03*
D33*
X16645000Y6439000D02*
D03*
Y5861000D02*
D03*
D34*
X13960001Y6952000D02*
D03*
Y6698000D02*
D03*
Y6190000D02*
D03*
Y5682000D02*
D03*
Y5936000D02*
D03*
Y6444000D02*
D03*
X15223000Y7150000D02*
D03*
D35*
X13960001Y5428000D02*
D03*
D36*
X15477000Y7150000D02*
D03*
D37*
X16360001Y6240000D02*
D03*
X16742555Y6058207D02*
D03*
X15716341Y5948058D02*
D03*
X15130000Y5690000D02*
D03*
X14737086Y6763517D02*
D03*
X15200301Y6496083D02*
D03*
X14664055Y6184055D02*
D03*
X14660001Y6090000D02*
D03*
X14950000Y5850000D02*
D03*
X14789999Y6440000D02*
D03*
X15039999Y5910000D02*
D03*
X14800000Y5750000D02*
D03*
X15920000Y6180000D02*
D03*
X16720000Y6190000D02*
D03*
X15860001Y6370000D02*
D03*
X15800000Y6630000D02*
D03*
X16360001Y5830000D02*
D03*
X14810001Y6930000D02*
D03*
X15088251Y6582216D02*
D03*
X15620000Y6370000D02*
D03*
X16439999Y5540000D02*
D03*
X16410001Y6470000D02*
D03*
X17110001Y7060000D02*
D03*
X16439999Y6780000D02*
D03*
X14370000Y5980000D02*
D03*
Y6910000D02*
D03*
%TF.MD5,e3bfac140c677a6c0c5c93cd0373c827*%
M02*
