%TF.GenerationSoftware,Altium Limited,Altium Designer,24.1.2 (44)*%
G04 Layer_Color=65535*
%FSLAX45Y45*%
%MOMM*%
%TF.SameCoordinates,66D67B9E-EE8B-469C-A6B4-FAA81B9CD0F6*%
%TF.FilePolarity,Positive*%
%TF.FileFunction,Legend,Top*%
%TF.Part,Single*%
G01*
G75*
%TA.AperFunction,NonConductor*%
%ADD38C,0.20000*%
%ADD39C,0.25000*%
%ADD40C,0.12700*%
%ADD41C,0.10000*%
%ADD42C,0.15000*%
%ADD43R,0.15000X0.80000*%
D38*
X16420000Y5830000D02*
G03*
X16420000Y5830000I-10000J0D01*
G01*
X15702499Y6652500D02*
Y7007500D01*
Y6652500D02*
X16357500D01*
Y7007500D01*
X15702499D02*
X16357500D01*
X16910001Y6960000D02*
X17030000D01*
X16650000Y5480000D02*
Y5600000D01*
X15196001Y5447500D02*
Y5502500D01*
X15056000Y5625000D02*
X15149500D01*
X15056000Y5325000D02*
Y5407500D01*
Y5542500D02*
Y5625000D01*
Y5325000D02*
X15149500D01*
X14870000Y5447500D02*
Y5502500D01*
X14730000Y5625000D02*
X14823500D01*
X14730000Y5325000D02*
Y5407500D01*
Y5542500D02*
Y5625000D01*
Y5325000D02*
X14823500D01*
X14094501Y5286000D02*
Y7094000D01*
X13825500Y5286000D02*
X14094501D01*
X13825500D02*
Y7094000D01*
X14094501D01*
X15081000Y7284500D02*
X15619000D01*
Y7015500D02*
Y7284500D01*
X15081000Y7015500D02*
X15619000D01*
X15081000D02*
Y7284500D01*
X15200000Y6000000D02*
Y6025000D01*
X15175000Y6000000D02*
X15200000D01*
Y6375000D02*
Y6400000D01*
X15175000D02*
X15200000D01*
X14800000Y6000000D02*
Y6025000D01*
Y6000000D02*
X14825000D01*
X14800000Y6375000D02*
Y6400000D01*
X14825000D01*
X15670000Y5803800D02*
Y6096200D01*
X15730000D01*
Y5803800D02*
Y6096200D01*
X15670000Y5803800D02*
X15730000D01*
X15764999Y5790000D02*
X15885001D01*
D39*
X15812500Y6375000D02*
G03*
X15812500Y6375000I-12500J0D01*
G01*
X15278107Y6075000D02*
G03*
X15278107Y6075000I-12500J0D01*
G01*
D40*
X16735001Y6597000D02*
X16885001D01*
X16735001Y5703000D02*
X16885001D01*
X17270000D02*
Y6597000D01*
X17135001D02*
X17270000D01*
X17135001Y5703000D02*
X17270000D01*
D41*
X14516499Y5445000D02*
Y5840000D01*
X14223500Y5440000D02*
Y5835000D01*
X14516499Y6375000D02*
Y6770000D01*
X14223500Y6370000D02*
Y6765000D01*
D42*
X14596693Y6910016D02*
Y7009984D01*
X14646678D01*
X14663339Y6993322D01*
Y6960000D01*
X14646678Y6943338D01*
X14596693D01*
X14630016D02*
X14663339Y6910016D01*
X14696661Y6926677D02*
X14713322Y6910016D01*
X14746645D01*
X14763307Y6926677D01*
Y6993322D01*
X14746645Y7009984D01*
X14713322D01*
X14696661Y6993322D01*
Y6976661D01*
X14713322Y6960000D01*
X14763307D01*
X15106694Y5800016D02*
Y5899984D01*
X15156677D01*
X15173338Y5883322D01*
Y5850000D01*
X15156677Y5833339D01*
X15106694D01*
X15140016D02*
X15173338Y5800016D01*
X15206660Y5883322D02*
X15223323Y5899984D01*
X15256645D01*
X15273306Y5883322D01*
Y5866661D01*
X15256645Y5850000D01*
X15273306Y5833339D01*
Y5816677D01*
X15256645Y5800016D01*
X15223323D01*
X15206660Y5816677D01*
Y5833339D01*
X15223323Y5850000D01*
X15206660Y5866661D01*
Y5883322D01*
X15223323Y5850000D02*
X15256645D01*
X14556694Y6500016D02*
Y6599984D01*
X14606677D01*
X14623338Y6583323D01*
Y6550000D01*
X14606677Y6533339D01*
X14556694D01*
X14590016D02*
X14623338Y6500016D01*
X14723306Y6599984D02*
X14689984Y6583323D01*
X14656660Y6550000D01*
Y6516678D01*
X14673323Y6500016D01*
X14706645D01*
X14723306Y6516678D01*
Y6533339D01*
X14706645Y6550000D01*
X14656660D01*
X15446693Y5440016D02*
Y5539984D01*
X15496677D01*
X15513339Y5523322D01*
Y5490000D01*
X15496677Y5473339D01*
X15446693D01*
X15480016D02*
X15513339Y5440016D01*
X15613306Y5539984D02*
X15546661D01*
Y5490000D01*
X15579984Y5506661D01*
X15596645D01*
X15613306Y5490000D01*
Y5456677D01*
X15596645Y5440016D01*
X15563322D01*
X15546661Y5456677D01*
X13876694Y7150016D02*
Y7249984D01*
X13926678D01*
X13943340Y7233323D01*
Y7200000D01*
X13926678Y7183339D01*
X13876694D01*
X14043306Y7150016D02*
X13976662D01*
X14043306Y7216661D01*
Y7233323D01*
X14026645Y7249984D01*
X13993323D01*
X13976662Y7233323D01*
X16243353Y7199984D02*
Y7116678D01*
X16260016Y7100016D01*
X16293338D01*
X16309999Y7116678D01*
Y7199984D01*
X16343323Y7100016D02*
X16376645D01*
X16359984D01*
Y7199984D01*
X16343323Y7183323D01*
X14363339Y6103323D02*
X14346677Y6119984D01*
X14313354D01*
X14296693Y6103323D01*
Y6086661D01*
X14313354Y6070000D01*
X14346677D01*
X14363339Y6053339D01*
Y6036678D01*
X14346677Y6020016D01*
X14313354D01*
X14296693Y6036678D01*
X14463306Y6020016D02*
X14396661D01*
X14463306Y6086661D01*
Y6103323D01*
X14446645Y6119984D01*
X14413322D01*
X14396661Y6103323D01*
X14370000Y7033322D02*
X14353339Y7049984D01*
X14320016D01*
X14303355Y7033322D01*
Y7016661D01*
X14320016Y7000000D01*
X14353339D01*
X14370000Y6983339D01*
Y6966677D01*
X14353339Y6950016D01*
X14320016D01*
X14303355Y6966677D01*
X14403323Y6950016D02*
X14436646D01*
X14419984D01*
Y7049984D01*
X14403323Y7033322D01*
X14786694Y6520016D02*
Y6619984D01*
X14836678D01*
X14853339Y6603323D01*
Y6570000D01*
X14836678Y6553339D01*
X14786694D01*
X14820016D02*
X14853339Y6520016D01*
X14886661Y6619984D02*
X14953307D01*
Y6603323D01*
X14886661Y6536678D01*
Y6520016D01*
X14866695Y6910016D02*
Y7009984D01*
X14916678D01*
X14933339Y6993322D01*
Y6960000D01*
X14916678Y6943338D01*
X14866695D01*
X14900015D02*
X14933339Y6910016D01*
X15016644D02*
Y7009984D01*
X14966661Y6960000D01*
X15033305D01*
X16686694Y6830016D02*
Y6929984D01*
X16736678D01*
X16753339Y6913322D01*
Y6880000D01*
X16736678Y6863339D01*
X16686694D01*
X16720016D02*
X16753339Y6830016D01*
X16786661Y6913322D02*
X16803323Y6929984D01*
X16836646D01*
X16853307Y6913322D01*
Y6896661D01*
X16836646Y6880000D01*
X16819984D01*
X16836646D01*
X16853307Y6863339D01*
Y6846677D01*
X16836646Y6830016D01*
X16803323D01*
X16786661Y6846677D01*
X16886694Y6680016D02*
Y6779984D01*
X16936678D01*
X16953339Y6763323D01*
Y6730000D01*
X16936678Y6713339D01*
X16886694D01*
X16920016D02*
X16953339Y6680016D01*
X17053307D02*
X16986661D01*
X17053307Y6746661D01*
Y6763323D01*
X17036646Y6779984D01*
X17003323D01*
X16986661Y6763323D01*
X16843355Y5490016D02*
Y5589984D01*
X16893340D01*
X16910001Y5573323D01*
Y5540000D01*
X16893340Y5523339D01*
X16843355D01*
X16876677D02*
X16910001Y5490016D01*
X16943323D02*
X16976645D01*
X16959984D01*
Y5589984D01*
X16943323Y5573323D01*
X15253339Y5666678D02*
Y5733323D01*
X15236678Y5749984D01*
X15203355D01*
X15186694Y5733323D01*
Y5666678D01*
X15203355Y5650016D01*
X15236678D01*
X15220016Y5683339D02*
X15253339Y5650016D01*
X15236678D02*
X15253339Y5666678D01*
X15353307Y5650016D02*
X15286661D01*
X15353307Y5716661D01*
Y5733323D01*
X15336646Y5749984D01*
X15303323D01*
X15286661Y5733323D01*
X14710001Y5686677D02*
Y5753323D01*
X14693340Y5769984D01*
X14660016D01*
X14643355Y5753323D01*
Y5686677D01*
X14660016Y5670016D01*
X14693340D01*
X14676678Y5703339D02*
X14710001Y5670016D01*
X14693340D02*
X14710001Y5686677D01*
X14743323Y5670016D02*
X14776645D01*
X14759984D01*
Y5769984D01*
X14743323Y5753323D01*
X14903355Y7110016D02*
Y7209984D01*
X14953339D01*
X14970000Y7193322D01*
Y7160000D01*
X14953339Y7143339D01*
X14903355D01*
X15003323Y7110016D02*
X15036646D01*
X15019984D01*
Y7209984D01*
X15003323Y7193322D01*
X16350000Y5769984D02*
X16316678D01*
X16333339D01*
Y5686677D01*
X16316678Y5670016D01*
X16300015D01*
X16283356Y5686677D01*
X16383324Y5670016D02*
X16416644D01*
X16399985D01*
Y5769984D01*
X16383324Y5753322D01*
X15275040Y6239984D02*
X15308363D01*
X15291702D01*
Y6140016D01*
X15275040D01*
X15308363D01*
X15424992Y6223323D02*
X15408331Y6239984D01*
X15375008D01*
X15358347Y6223323D01*
Y6156678D01*
X15375008Y6140016D01*
X15408331D01*
X15424992Y6156678D01*
X15524960Y6140016D02*
X15458315D01*
X15524960Y6206661D01*
Y6223323D01*
X15508298Y6239984D01*
X15474976D01*
X15458315Y6223323D01*
X15751701Y5739984D02*
X15785023D01*
X15768362D01*
Y5640016D01*
X15751701D01*
X15785023D01*
X15901653Y5723322D02*
X15884991Y5739984D01*
X15851669D01*
X15835008Y5723322D01*
Y5656677D01*
X15851669Y5640016D01*
X15884991D01*
X15901653Y5656677D01*
X15934976Y5640016D02*
X15968298D01*
X15951637D01*
Y5739984D01*
X15934976Y5723322D01*
X16713354Y7069984D02*
Y6970016D01*
X16763339D01*
X16780000Y6986677D01*
Y7053322D01*
X16763339Y7069984D01*
X16713354D01*
X16813322Y6970016D02*
X16846645D01*
X16829984D01*
Y7069984D01*
X16813322Y7053322D01*
X15443340Y6718322D02*
X15426678Y6734984D01*
X15393355D01*
X15376694Y6718322D01*
Y6651677D01*
X15393355Y6635016D01*
X15426678D01*
X15443340Y6651677D01*
X15543306Y6734984D02*
X15509984Y6718322D01*
X15476662Y6685000D01*
Y6651677D01*
X15493323Y6635016D01*
X15526645D01*
X15543306Y6651677D01*
Y6668338D01*
X15526645Y6685000D01*
X15476662D01*
X15643340Y6273322D02*
X15626677Y6289984D01*
X15593355D01*
X15576694Y6273322D01*
Y6206677D01*
X15593355Y6190016D01*
X15626677D01*
X15643340Y6206677D01*
X15743306Y6289984D02*
X15676662D01*
Y6240000D01*
X15709984Y6256661D01*
X15726645D01*
X15743306Y6240000D01*
Y6206677D01*
X15726645Y6190016D01*
X15693323D01*
X15676662Y6206677D01*
X15073338Y6573322D02*
X15056677Y6589984D01*
X15023355D01*
X15006694Y6573322D01*
Y6506677D01*
X15023355Y6490016D01*
X15056677D01*
X15073338Y6506677D01*
X15156645Y6490016D02*
Y6589984D01*
X15106660Y6540000D01*
X15173306D01*
X15363339Y6873322D02*
X15346678Y6889984D01*
X15313354D01*
X15296693Y6873322D01*
Y6806677D01*
X15313354Y6790016D01*
X15346678D01*
X15363339Y6806677D01*
X15396661Y6873322D02*
X15413322Y6889984D01*
X15446646D01*
X15463307Y6873322D01*
Y6856661D01*
X15446646Y6840000D01*
X15429984D01*
X15446646D01*
X15463307Y6823338D01*
Y6806677D01*
X15446646Y6790016D01*
X15413322D01*
X15396661Y6806677D01*
X16013339Y6093322D02*
X15996677Y6109984D01*
X15963354D01*
X15946693Y6093322D01*
Y6026677D01*
X15963354Y6010016D01*
X15996677D01*
X16013339Y6026677D01*
X16113306Y6010016D02*
X16046661D01*
X16113306Y6076661D01*
Y6093322D01*
X16096645Y6109984D01*
X16063322D01*
X16046661Y6093322D01*
X16260001Y6083322D02*
X16243340Y6099984D01*
X16210016D01*
X16193355Y6083322D01*
Y6016677D01*
X16210016Y6000016D01*
X16243340D01*
X16260001Y6016677D01*
X16293323Y6000016D02*
X16326645D01*
X16309984D01*
Y6099984D01*
X16293323Y6083322D01*
D43*
X16667497Y7020000D02*
D03*
%TF.MD5,16fec8df8f149b06c12e0945253da6f6*%
M02*
