%TF.GenerationSoftware,Altium Limited,Altium Designer,24.1.2 (44)*%
G04 Layer_Color=0*
%FSLAX45Y45*%
%MOMM*%
%TF.SameCoordinates,66D67B9E-EE8B-469C-A6B4-FAA81B9CD0F6*%
%TF.FilePolarity,Positive*%
%TF.FileFunction,Plated,1,2,PTH,Drill*%
%TF.Part,Single*%
G01*
G75*
%TA.AperFunction,ComponentDrill*%
%ADD76O,1.75000X0.65000*%
%ADD77O,1.45000X0.65000*%
%ADD78C,1.10000*%
%ADD79C,1.10000*%
%TA.AperFunction,ViaDrill,NotFilled*%
%ADD80C,0.30000*%
D76*
X16595000Y6582000D02*
D03*
Y5718000D02*
D03*
D77*
X17010001Y6582000D02*
D03*
Y5718000D02*
D03*
D78*
X13960001Y6952000D02*
D03*
Y6698000D02*
D03*
Y6190000D02*
D03*
Y5682000D02*
D03*
Y5428000D02*
D03*
Y5936000D02*
D03*
Y6444000D02*
D03*
D79*
X15477000Y7150000D02*
D03*
X15223000D02*
D03*
D80*
X16360001Y6240000D02*
D03*
X16742555Y6058207D02*
D03*
X15716341Y5948058D02*
D03*
X15130000Y5690000D02*
D03*
X14737086Y6763517D02*
D03*
X15200301Y6496083D02*
D03*
X14664055Y6184055D02*
D03*
X14660001Y6090000D02*
D03*
X14950000Y5850000D02*
D03*
X14789999Y6440000D02*
D03*
X15039999Y5910000D02*
D03*
X14800000Y5750000D02*
D03*
X15920000Y6180000D02*
D03*
X16720000Y6190000D02*
D03*
X15860001Y6370000D02*
D03*
X15800000Y6630000D02*
D03*
X16360001Y5830000D02*
D03*
X14810001Y6930000D02*
D03*
X15088251Y6582216D02*
D03*
X15620000Y6370000D02*
D03*
X16439999Y5540000D02*
D03*
X16410001Y6470000D02*
D03*
X17110001Y7060000D02*
D03*
X16439999Y6780000D02*
D03*
X14370000Y5980000D02*
D03*
Y6910000D02*
D03*
%TF.MD5,23626fa8e638219c7cb873ffa7fa7975*%
M02*
