%TF.GenerationSoftware,Altium Limited,Altium Designer,24.5.1 (21)*%
G04 Layer_Color=0*
%FSLAX45Y45*%
%MOMM*%
%TF.SameCoordinates,A89F510B-B2DD-4167-9D38-4ED2E7CAC25F*%
%TF.FilePolarity,Positive*%
%TF.FileFunction,Plated,1,2,PTH,Drill*%
%TF.Part,Single*%
G01*
G75*
%TA.AperFunction,ComponentDrill*%
%ADD76C,1.10000*%
%ADD77C,1.10000*%
%ADD78O,1.75000X0.65000*%
%ADD79O,1.45000X0.65000*%
%TA.AperFunction,ViaDrill,NotFilled*%
%ADD80C,0.30000*%
D76*
X13960001Y6190000D02*
D03*
Y5682000D02*
D03*
Y5936000D02*
D03*
Y6444000D02*
D03*
Y6698000D02*
D03*
D77*
X15223000Y7090000D02*
D03*
X15477000D02*
D03*
D78*
X16595000Y6582000D02*
D03*
Y5718000D02*
D03*
D79*
X17010001Y6582000D02*
D03*
Y5718000D02*
D03*
D80*
X14920000Y5920000D02*
D03*
X15010001D02*
D03*
X16360001Y6240000D02*
D03*
X16742555Y6058207D02*
D03*
X15716341Y5948058D02*
D03*
X14737086Y6763517D02*
D03*
X15200301Y6496083D02*
D03*
X14664055Y6184055D02*
D03*
X14660001Y6090000D02*
D03*
X14789999Y6440000D02*
D03*
X15920000Y6180000D02*
D03*
X16720000Y6190000D02*
D03*
X15860001Y6370000D02*
D03*
X15800000Y6630000D02*
D03*
X16360001Y5830000D02*
D03*
X14810001Y6930000D02*
D03*
X15088251Y6582216D02*
D03*
X15620000Y6370000D02*
D03*
X16439999Y5540000D02*
D03*
X16410001Y6470000D02*
D03*
X17110001Y7060000D02*
D03*
X16439999Y6770000D02*
D03*
X14370000Y6070000D02*
D03*
Y6930000D02*
D03*
%TF.MD5,b22d0b4d9b7afb91d656bb6e672fa92b*%
M02*
