%TF.GenerationSoftware,Altium Limited,Altium Designer,24.5.1 (21)*%
G04 Layer_Physical_Order=1*
G04 Layer_Color=255*
%FSLAX45Y45*%
%MOMM*%
%TF.SameCoordinates,A89F510B-B2DD-4167-9D38-4ED2E7CAC25F*%
%TF.FilePolarity,Positive*%
%TF.FileFunction,Copper,L1,Top,Signal*%
%TF.Part,Single*%
G01*
G75*
%TA.AperFunction,ConnectorPad*%
%ADD10R,1.15000X0.60000*%
%ADD11R,1.15000X0.30000*%
%TA.AperFunction,SMDPad,CuDef*%
%ADD12R,3.30000X1.60000*%
%ADD13R,1.20000X1.60000*%
%ADD14R,2.00000X1.05000*%
%ADD15R,0.90000X0.60000*%
%ADD16R,0.60000X0.90000*%
%ADD17R,1.35000X1.00000*%
%ADD18R,1.00000X1.35000*%
%ADD19R,0.80000X0.60000*%
G04:AMPARAMS|DCode=20|XSize=0.23928mm|YSize=0.80964mm|CornerRadius=0.11964mm|HoleSize=0mm|Usage=FLASHONLY|Rotation=180.000|XOffset=0mm|YOffset=0mm|HoleType=Round|Shape=RoundedRectangle|*
%AMROUNDEDRECTD20*
21,1,0.23928,0.57035,0,0,180.0*
21,1,0.00000,0.80964,0,0,180.0*
1,1,0.23928,0.00000,0.28518*
1,1,0.23928,0.00000,0.28518*
1,1,0.23928,0.00000,-0.28518*
1,1,0.23928,0.00000,-0.28518*
%
%ADD20ROUNDEDRECTD20*%
G04:AMPARAMS|DCode=21|XSize=0.80964mm|YSize=0.23928mm|CornerRadius=0.11964mm|HoleSize=0mm|Usage=FLASHONLY|Rotation=180.000|XOffset=0mm|YOffset=0mm|HoleType=Round|Shape=RoundedRectangle|*
%AMROUNDEDRECTD21*
21,1,0.80964,0.00000,0,0,180.0*
21,1,0.57035,0.23928,0,0,180.0*
1,1,0.23928,-0.28518,0.00000*
1,1,0.23928,0.28518,0.00000*
1,1,0.23928,0.28518,0.00000*
1,1,0.23928,-0.28518,0.00000*
%
%ADD21ROUNDEDRECTD21*%
%ADD22R,0.80964X0.23928*%
%ADD23R,2.55000X2.55000*%
%ADD24R,1.10000X0.60000*%
%ADD25R,0.80000X0.80000*%
%ADD26R,0.80000X0.80000*%
%TA.AperFunction,Conductor*%
%ADD27C,0.30000*%
%ADD28C,0.20000*%
%ADD29C,0.28423*%
%ADD30C,0.25000*%
%TA.AperFunction,ComponentPad*%
%ADD31C,1.60000*%
G04:AMPARAMS|DCode=32|XSize=1.6mm|YSize=1.6mm|CornerRadius=0.4mm|HoleSize=0mm|Usage=FLASHONLY|Rotation=90.000|XOffset=0mm|YOffset=0mm|HoleType=Round|Shape=RoundedRectangle|*
%AMROUNDEDRECTD32*
21,1,1.60000,0.80000,0,0,90.0*
21,1,0.80000,1.60000,0,0,90.0*
1,1,0.80000,0.40000,0.40000*
1,1,0.80000,0.40000,-0.40000*
1,1,0.80000,-0.40000,-0.40000*
1,1,0.80000,-0.40000,0.40000*
%
%ADD32ROUNDEDRECTD32*%
G04:AMPARAMS|DCode=33|XSize=1.6mm|YSize=1.6mm|CornerRadius=0.4mm|HoleSize=0mm|Usage=FLASHONLY|Rotation=180.000|XOffset=0mm|YOffset=0mm|HoleType=Round|Shape=RoundedRectangle|*
%AMROUNDEDRECTD33*
21,1,1.60000,0.80000,0,0,180.0*
21,1,0.80000,1.60000,0,0,180.0*
1,1,0.80000,-0.40000,0.40000*
1,1,0.80000,0.40000,0.40000*
1,1,0.80000,0.40000,-0.40000*
1,1,0.80000,-0.40000,-0.40000*
%
%ADD33ROUNDEDRECTD33*%
%ADD34O,2.15000X1.05000*%
%ADD35O,1.85000X1.05000*%
%ADD36C,0.70000*%
%TA.AperFunction,ViaPad*%
%ADD37C,0.60000*%
G36*
X17142999Y7299999D02*
X17142999Y7299999D01*
X17155508Y7299999D01*
X17180045Y7295119D01*
X17203156Y7285546D01*
X17223956Y7271648D01*
X17241647Y7253958D01*
X17255545Y7233157D01*
X17265118Y7210045D01*
X17270000Y7185509D01*
X17270000Y7173001D01*
X17270000Y5486999D01*
X17270000Y5486999D01*
X17270000Y5474195D01*
X17265002Y5449079D01*
X17255203Y5425421D01*
X17240977Y5404129D01*
X17222870Y5386022D01*
X17201578Y5371795D01*
X17177919Y5361995D01*
X17152805Y5357000D01*
X13879997D01*
X13867195Y5356999D01*
X13842079Y5361995D01*
X13818420Y5371795D01*
X13797128Y5386022D01*
X13779021Y5404129D01*
X13764795Y5425421D01*
X13754996Y5449080D01*
X13750000Y5474195D01*
X13750000Y5486999D01*
Y7173000D01*
X13750000Y7185509D01*
X13754880Y7210045D01*
X13764455Y7233157D01*
X13778352Y7253958D01*
X13796040Y7271647D01*
X13816843Y7285546D01*
X13839955Y7295119D01*
X13864491Y7300000D01*
X13876999Y7300000D01*
X17142999Y7300000D01*
X17142999Y7299999D01*
D02*
G37*
%LPC*%
G36*
X16207700Y7242700D02*
X15852299D01*
Y7178243D01*
X15539658D01*
X15537563Y7179642D01*
X15517000Y7183732D01*
X15437000D01*
X15416438Y7179642D01*
X15399007Y7167995D01*
X15387358Y7150563D01*
X15383269Y7130000D01*
Y7050000D01*
X15387358Y7029438D01*
X15399007Y7012006D01*
X15416438Y7000358D01*
X15437000Y6996268D01*
X15517000D01*
X15537563Y7000358D01*
X15554996Y7012006D01*
X15566643Y7029438D01*
X15570732Y7050000D01*
Y7121757D01*
X15852299D01*
Y7057300D01*
X16001756D01*
Y6602700D01*
X15957300D01*
Y6417300D01*
X16001756D01*
Y6387700D01*
X15977299D01*
Y6288243D01*
X15861699D01*
X15751675Y6398267D01*
X15756535Y6410000D01*
X15789999D01*
Y6500000D01*
X15720000D01*
Y6446535D01*
X15708267Y6441675D01*
X15688243Y6461699D01*
Y6539999D01*
X15688243Y6540000D01*
X15686093Y6550808D01*
X15679971Y6559971D01*
X15679970Y6559972D01*
X15529971Y6709971D01*
X15520808Y6716093D01*
X15510001Y6718243D01*
X15509999Y6718243D01*
X15325282D01*
X15318243Y6725283D01*
Y6745000D01*
X15316093Y6755808D01*
X15309972Y6764971D01*
X15309970Y6764971D01*
X15252699Y6822241D01*
Y6887700D01*
X15251244D01*
Y7001598D01*
X15258781Y7003618D01*
X15279919Y7015822D01*
X15297179Y7033081D01*
X15309383Y7054219D01*
X15315700Y7077796D01*
Y7102204D01*
X15309383Y7125781D01*
X15297179Y7146919D01*
X15279919Y7164178D01*
X15258781Y7176382D01*
X15235204Y7182700D01*
X15210796D01*
X15187219Y7176382D01*
X15166081Y7164178D01*
X15148822Y7146919D01*
X15136618Y7125781D01*
X15130299Y7102204D01*
Y7077796D01*
X15136618Y7054219D01*
X15148822Y7033081D01*
X15166081Y7015822D01*
X15187219Y7003618D01*
X15194757Y7001598D01*
Y6887700D01*
X15147301D01*
Y6863243D01*
X15122701D01*
Y6887700D01*
X15017300D01*
Y6863243D01*
X14997701D01*
Y6877700D01*
X14884676D01*
X14875000Y6885000D01*
X14875000Y6885001D01*
X14874998Y6885000D01*
X14820001D01*
Y6835000D01*
Y6785000D01*
X14875000D01*
Y6785000D01*
X14882300Y6792300D01*
X14997701D01*
Y6806757D01*
X15017300D01*
Y6782300D01*
X15122701D01*
Y6806757D01*
X15147301D01*
Y6782300D01*
X15212758D01*
X15238326Y6756733D01*
X15233466Y6745000D01*
X15210001D01*
Y6685000D01*
Y6625000D01*
X15247098D01*
X15252357Y6612300D01*
X15238701Y6598643D01*
X15180402D01*
X15180400Y6598643D01*
X15169592Y6596493D01*
X15160429Y6590371D01*
X15160429Y6590370D01*
X15104893Y6534835D01*
X15098772Y6525672D01*
X15096622Y6514864D01*
X15096622Y6514863D01*
Y6474071D01*
X15083920Y6468810D01*
X14963145Y6589587D01*
Y6642300D01*
X14997301D01*
X14997701Y6642300D01*
X15010001Y6641334D01*
Y6625000D01*
X15060001D01*
Y6685000D01*
Y6745000D01*
X15010001D01*
Y6728665D01*
X14997701Y6727700D01*
X14997301Y6727700D01*
X14882300D01*
Y6708145D01*
X14867700D01*
Y6727700D01*
X14778250D01*
X14773730Y6740400D01*
X14779787Y6755023D01*
Y6772010D01*
X14778780Y6774440D01*
X14785835Y6785000D01*
X14800002D01*
Y6835000D01*
Y6885000D01*
X14745000D01*
Y6885000D01*
X14737700Y6877700D01*
X14622301D01*
Y6792300D01*
X14688133D01*
X14688617Y6789864D01*
X14693636Y6782355D01*
X14697197Y6778793D01*
X14694386Y6772010D01*
Y6755023D01*
X14700446Y6740400D01*
X14695924Y6727700D01*
X14622301D01*
Y6642300D01*
X14656854D01*
Y6620000D01*
X14658617Y6611143D01*
X14663634Y6603634D01*
X14747949Y6519320D01*
X14755457Y6514303D01*
X14764314Y6512541D01*
X14910353D01*
X14971793Y6451101D01*
X14967613Y6437320D01*
X14965376Y6436875D01*
X14957217Y6431424D01*
X14942781D01*
X14934624Y6436875D01*
X14925000Y6438790D01*
X14915376Y6436875D01*
X14907217Y6431424D01*
X14892781D01*
X14884624Y6436875D01*
X14875000Y6438790D01*
X14865376Y6436875D01*
X14857217Y6431424D01*
X14851767Y6423266D01*
X14849854Y6413642D01*
Y6361811D01*
X14845695Y6354305D01*
X14838190Y6350147D01*
X14786359D01*
X14776733Y6348233D01*
X14768576Y6342782D01*
X14763126Y6334624D01*
X14761211Y6325000D01*
X14763126Y6315376D01*
X14768576Y6307219D01*
Y6292782D01*
X14763126Y6284624D01*
X14761211Y6275000D01*
X14763126Y6265377D01*
X14766153Y6260845D01*
X14761459Y6249196D01*
X14760527Y6248145D01*
X14739587D01*
X14737700Y6250032D01*
Y6322700D01*
X14622301D01*
Y6269462D01*
X14610129Y6264091D01*
X14603145Y6269681D01*
Y6377960D01*
X14614999Y6380000D01*
X14615845Y6380000D01*
X14670000D01*
Y6420001D01*
X14614999D01*
Y6395500D01*
X14602299Y6394249D01*
X14601382Y6398858D01*
X14596365Y6406366D01*
X14506366Y6496366D01*
X14498859Y6501383D01*
X14489999Y6503145D01*
X14033884D01*
X14032272Y6502824D01*
X14016919Y6518178D01*
X13995781Y6530382D01*
X13972205Y6536700D01*
X13947797D01*
X13924219Y6530382D01*
X13903081Y6518178D01*
X13885822Y6500919D01*
X13873618Y6479781D01*
X13867300Y6456204D01*
Y6431796D01*
X13873618Y6408219D01*
X13885822Y6387081D01*
X13903081Y6369822D01*
X13924219Y6357618D01*
X13945070Y6352030D01*
X13943398Y6339330D01*
X13906186D01*
X13897328Y6337569D01*
X13889819Y6332551D01*
X13809134Y6251866D01*
X13804117Y6244357D01*
X13802354Y6235500D01*
Y6124500D01*
X13804117Y6115643D01*
X13809134Y6108134D01*
X13903548Y6013721D01*
X13903081Y6010178D01*
X13885822Y5992919D01*
X13873618Y5971781D01*
X13867300Y5948204D01*
Y5923796D01*
X13873618Y5900219D01*
X13885822Y5879081D01*
X13903081Y5861822D01*
X13924219Y5849618D01*
X13947797Y5843300D01*
X13972205D01*
X13995781Y5849618D01*
X14007111Y5856158D01*
X14197633Y5665634D01*
X14205144Y5660617D01*
X14214000Y5658855D01*
X14472414D01*
X14572633Y5558634D01*
X14580144Y5553617D01*
X14589000Y5551855D01*
X14637320D01*
X14644327Y5544848D01*
X14642450Y5531769D01*
X14634286Y5530645D01*
X14482700D01*
Y5572700D01*
X14257300D01*
Y5530645D01*
X14242087D01*
X14074651Y5698081D01*
X14067142Y5703099D01*
X14058284Y5704860D01*
X14053732D01*
Y5722000D01*
X14049641Y5742563D01*
X14037994Y5759995D01*
X14020563Y5771642D01*
X14000000Y5775732D01*
X13920000D01*
X13899438Y5771642D01*
X13882005Y5759995D01*
X13870358Y5742563D01*
X13866267Y5722000D01*
Y5642000D01*
X13870358Y5621438D01*
X13882005Y5604006D01*
X13899438Y5592358D01*
X13920000Y5588268D01*
X14000000D01*
X14020563Y5592358D01*
X14037994Y5604006D01*
X14049641Y5621438D01*
X14052666Y5636641D01*
X14065802Y5641467D01*
X14216135Y5491134D01*
X14223643Y5486117D01*
X14232500Y5484355D01*
X14257300D01*
Y5442300D01*
X14482700D01*
Y5484355D01*
X14817500D01*
X14826357Y5486117D01*
X14833865Y5491134D01*
X14836568Y5493835D01*
X14848300Y5488975D01*
Y5437300D01*
X14920969D01*
X14957635Y5400634D01*
X14965143Y5395617D01*
X14974001Y5393855D01*
X15277000D01*
X15285857Y5395617D01*
X15293365Y5400634D01*
X15335033Y5442300D01*
X15417700D01*
Y5527700D01*
X15302299D01*
Y5475032D01*
X15291434Y5464165D01*
X15279700Y5469025D01*
Y5522700D01*
X15215816D01*
X15213367Y5526366D01*
X15048145Y5691586D01*
Y5752300D01*
X15067700D01*
Y5867700D01*
X15028503D01*
X15025977Y5880400D01*
X15034187Y5883801D01*
X15046199Y5895813D01*
X15052699Y5911507D01*
Y5928494D01*
X15046199Y5944188D01*
X15038670Y5951717D01*
X15038489Y5952227D01*
X15039748Y5966093D01*
X15040158Y5966823D01*
X15042781Y5968576D01*
X15057217D01*
X15065376Y5963125D01*
X15065532Y5963094D01*
X15196855Y5831771D01*
Y5820000D01*
X15198618Y5811143D01*
X15203635Y5803634D01*
X15203854Y5803413D01*
Y5712700D01*
X15174300D01*
Y5627300D01*
X15279700D01*
Y5646855D01*
X15300414D01*
X15302299Y5644968D01*
Y5592300D01*
X15417700D01*
Y5677700D01*
X15335031D01*
X15326366Y5686366D01*
X15318857Y5691383D01*
X15310001Y5693145D01*
X15279700D01*
Y5712700D01*
X15250145D01*
Y5813000D01*
X15248383Y5821857D01*
X15243365Y5829366D01*
X15243146Y5829587D01*
Y5841357D01*
X15241383Y5850215D01*
X15236366Y5857723D01*
X15141550Y5952539D01*
X15142783Y5968576D01*
X15148233Y5976734D01*
X15150146Y5986358D01*
Y6043393D01*
X15155846Y6050336D01*
X15238306D01*
Y6099664D01*
X15238307Y6099664D01*
X15238307D01*
X15242924Y6110635D01*
X15256140Y6114664D01*
X15338065Y6032740D01*
Y5970205D01*
X15338065Y5970204D01*
X15342194Y5949441D01*
X15353955Y5931840D01*
X15394870Y5890925D01*
X15394870Y5890925D01*
X15412471Y5879164D01*
X15433234Y5875034D01*
X15433235Y5875034D01*
X15449188D01*
X15452225Y5870489D01*
X15470190Y5852523D01*
X15479408Y5846364D01*
X15504800Y5820973D01*
Y5812300D01*
X15515627D01*
X15526738Y5804876D01*
X15547501Y5800746D01*
X15547501Y5800746D01*
X15572501D01*
X15593262Y5804876D01*
X15604373Y5812300D01*
X15640199D01*
Y5873265D01*
X15651933Y5878125D01*
X15661757Y5868301D01*
Y5800001D01*
X15661757Y5800000D01*
X15663907Y5789192D01*
X15670029Y5780029D01*
X15720029Y5730030D01*
X15720030Y5730029D01*
X15729192Y5723907D01*
X15739999Y5721757D01*
X16149998D01*
X16150000Y5721757D01*
X16160808Y5723907D01*
X16169971Y5730029D01*
X16321698Y5881757D01*
X16448029D01*
X16460001Y5879999D01*
Y5840000D01*
X16537500D01*
Y5820000D01*
X16460001D01*
Y5780000D01*
X16482652D01*
X16486446Y5767300D01*
X16476672Y5754563D01*
X16469366Y5736926D01*
X16468192Y5728000D01*
X16595001D01*
Y5718001D01*
X16605000D01*
Y5644874D01*
X16650000D01*
X16668925Y5647366D01*
X16686563Y5654671D01*
X16701707Y5666292D01*
X16709155Y5675999D01*
X16721855Y5671687D01*
Y5620200D01*
X16682300D01*
Y5459800D01*
X16807700D01*
Y5620200D01*
X16768146D01*
Y5915000D01*
X16766383Y5923857D01*
X16761366Y5931366D01*
X16688055Y6004676D01*
X16687939Y6005636D01*
X16692384Y6018307D01*
X16698567Y6019333D01*
X16712990Y6009696D01*
X16733084Y6005699D01*
X16742555D01*
X16762650Y6009696D01*
X16779684Y6021078D01*
X16791068Y6038113D01*
X16795064Y6058207D01*
X16791068Y6078302D01*
X16783009Y6090362D01*
X16819629Y6126983D01*
X16831012Y6144018D01*
X16835008Y6164112D01*
Y6215888D01*
X16831012Y6235982D01*
X16819629Y6253017D01*
X16783017Y6289629D01*
X16765982Y6301012D01*
X16745888Y6305009D01*
X16690298D01*
X16683264Y6317709D01*
X16685799Y6321757D01*
X16685960Y6321855D01*
X16735001D01*
X16743857Y6323617D01*
X16751366Y6328634D01*
X16796365Y6373634D01*
X16801382Y6381143D01*
X16803145Y6390000D01*
Y6665413D01*
X16928867Y6791134D01*
X16933884Y6798643D01*
X16934612Y6802300D01*
X17050200D01*
Y6927700D01*
X16889799D01*
Y6827236D01*
X16889355Y6825000D01*
Y6817087D01*
X16763634Y6691366D01*
X16758617Y6683857D01*
X16756854Y6675000D01*
Y6399587D01*
X16725414Y6368145D01*
X16670000D01*
X16661143Y6366383D01*
X16653635Y6361366D01*
X16640413Y6348145D01*
X16607700D01*
Y6392248D01*
X16620399Y6397559D01*
X16635512Y6391300D01*
X16654488D01*
X16672020Y6398562D01*
X16685439Y6411980D01*
X16692700Y6429512D01*
Y6448488D01*
X16685439Y6466020D01*
X16672020Y6479438D01*
X16654488Y6486700D01*
X16635512D01*
X16627699Y6483464D01*
X16614999Y6491950D01*
Y6508874D01*
X16650000D01*
X16668925Y6511366D01*
X16686563Y6518671D01*
X16701707Y6530292D01*
X16713329Y6545437D01*
X16720634Y6563073D01*
X16721809Y6571999D01*
X16595001D01*
X16468192D01*
X16469366Y6563073D01*
X16476672Y6545437D01*
X16486446Y6532700D01*
X16482652Y6520000D01*
X16460001D01*
Y6480000D01*
X16537500D01*
Y6460000D01*
X16460001D01*
Y6420000D01*
X16448029Y6418243D01*
X16410001D01*
X16399191Y6416093D01*
X16390028Y6409971D01*
X16343301Y6363243D01*
X16312700D01*
Y6387700D01*
X16288243D01*
Y6417300D01*
X16332700D01*
Y6602700D01*
X16187300D01*
Y6417300D01*
X16231757D01*
Y6387700D01*
X16207300D01*
Y6363243D01*
X16159499D01*
X16159499Y6363243D01*
X16148689Y6361093D01*
X16139526Y6354971D01*
X16094434Y6309877D01*
X16082700Y6314737D01*
Y6387700D01*
X16058243D01*
Y6417300D01*
X16102699D01*
Y6602700D01*
X16058243D01*
Y7057300D01*
X16207700D01*
Y7121757D01*
X16298302D01*
X16387300Y7032759D01*
Y6967300D01*
X16492700D01*
Y7072700D01*
X16427242D01*
X16329970Y7169971D01*
X16320808Y7176093D01*
X16309999Y7178243D01*
X16309998Y7178243D01*
X16207700D01*
Y7242700D01*
D02*
G37*
G36*
X17057500Y7125000D02*
X16980000D01*
Y7065000D01*
X17057500D01*
Y7125000D01*
D02*
G37*
G36*
X16960001D02*
X16882500D01*
Y7065000D01*
X16960001D01*
Y7125000D01*
D02*
G37*
G36*
X17057500Y7045000D02*
X16980000D01*
Y6985000D01*
X17057500D01*
Y7045000D01*
D02*
G37*
G36*
X16960001D02*
X16882500D01*
Y6985000D01*
X16960001D01*
Y7045000D01*
D02*
G37*
G36*
X16495000Y6945000D02*
X16455000D01*
Y6890000D01*
X16495000D01*
Y6945000D01*
D02*
G37*
G36*
X16435001D02*
X16395000D01*
Y6890000D01*
X16435001D01*
Y6945000D01*
D02*
G37*
G36*
X14489999Y6905000D02*
X14380000D01*
Y6842501D01*
X14489999D01*
Y6905000D01*
D02*
G37*
G36*
X14360001D02*
X14250000D01*
Y6842501D01*
X14360001D01*
Y6905000D01*
D02*
G37*
G36*
X16652699Y7072700D02*
X16547301D01*
Y6967300D01*
X16576855D01*
Y6937700D01*
X16552299D01*
Y6822300D01*
X16637700D01*
Y6937700D01*
X16623145D01*
Y6967300D01*
X16652699D01*
Y7072700D01*
D02*
G37*
G36*
X16495000Y6870000D02*
X16455000D01*
Y6815000D01*
X16495000D01*
Y6870000D01*
D02*
G37*
G36*
X16435001D02*
X16395000D01*
Y6815000D01*
X16435001D01*
Y6870000D01*
D02*
G37*
G36*
X14489999Y6822501D02*
X14380000D01*
Y6760000D01*
X14489999D01*
Y6822501D01*
D02*
G37*
G36*
X14360001D02*
X14250000D01*
Y6760000D01*
X14360001D01*
Y6822501D01*
D02*
G37*
G36*
X13973164Y6798000D02*
X13970001D01*
Y6708000D01*
X14060001D01*
Y6711165D01*
X14053185Y6736598D01*
X14040021Y6759401D01*
X14021400Y6778020D01*
X13998598Y6791185D01*
X13973164Y6798000D01*
D02*
G37*
G36*
X13950002D02*
X13946835D01*
X13921402Y6791185D01*
X13898599Y6778020D01*
X13879980Y6759401D01*
X13866815Y6736598D01*
X13860001Y6711165D01*
Y6708000D01*
X13950002D01*
Y6798000D01*
D02*
G37*
G36*
X15139999Y6745000D02*
X15130000D01*
X15127299Y6745000D01*
X15080000D01*
Y6685000D01*
Y6625000D01*
X15127299D01*
X15130000Y6625000D01*
X15139999D01*
X15142700Y6625000D01*
X15189999D01*
Y6685000D01*
Y6745000D01*
X15142700D01*
X15139999Y6745000D01*
D02*
G37*
G36*
X14060001Y6688000D02*
X13970001D01*
Y6598000D01*
X13973164D01*
X13998598Y6604815D01*
X14021400Y6617980D01*
X14040021Y6636599D01*
X14053185Y6659402D01*
X14060001Y6684835D01*
Y6688000D01*
D02*
G37*
G36*
X13950002D02*
X13860001D01*
Y6684835D01*
X13866815Y6659402D01*
X13879980Y6636599D01*
X13898599Y6617980D01*
X13921402Y6604815D01*
X13946835Y6598000D01*
X13950002D01*
Y6688000D01*
D02*
G37*
G36*
X16650000Y6655125D02*
X16605000D01*
Y6591999D01*
X16721809D01*
X16720634Y6600926D01*
X16713329Y6618563D01*
X16701707Y6633707D01*
X16686563Y6645328D01*
X16668925Y6652634D01*
X16650000Y6655125D01*
D02*
G37*
G36*
X17050000D02*
X17020000D01*
Y6591999D01*
X17121809D01*
X17120634Y6600926D01*
X17113329Y6618563D01*
X17101707Y6633707D01*
X17086563Y6645328D01*
X17068925Y6652634D01*
X17050000Y6655125D01*
D02*
G37*
G36*
X17000000D02*
X16970000D01*
X16951074Y6652634D01*
X16933437Y6645328D01*
X16918294Y6633707D01*
X16906673Y6618563D01*
X16899367Y6600926D01*
X16898190Y6591999D01*
X17000000D01*
Y6655125D01*
D02*
G37*
G36*
X16585001D02*
X16539999D01*
X16521074Y6652634D01*
X16503436Y6645328D01*
X16488293Y6633707D01*
X16476672Y6618563D01*
X16469366Y6600926D01*
X16468192Y6591999D01*
X16585001D01*
Y6655125D01*
D02*
G37*
G36*
X15880000Y6610000D02*
X15810001D01*
Y6520000D01*
X15880000D01*
Y6610000D01*
D02*
G37*
G36*
X15789999D02*
X15720000D01*
Y6520000D01*
X15789999D01*
Y6610000D01*
D02*
G37*
G36*
X17121809Y6571999D02*
X17020000D01*
Y6508874D01*
X17050000D01*
X17068925Y6511366D01*
X17086563Y6518671D01*
X17101707Y6530292D01*
X17113329Y6545437D01*
X17120634Y6563073D01*
X17121809Y6571999D01*
D02*
G37*
G36*
X17000000D02*
X16898190D01*
X16899367Y6563073D01*
X16906673Y6545437D01*
X16918294Y6530292D01*
X16933437Y6518671D01*
X16951074Y6511366D01*
X16970000Y6508874D01*
X17000000D01*
Y6571999D01*
D02*
G37*
G36*
X14745000Y6480000D02*
X14689999D01*
Y6440001D01*
X14745000D01*
Y6480000D01*
D02*
G37*
G36*
X14670000D02*
X14614999D01*
Y6440001D01*
X14670000D01*
Y6480000D01*
D02*
G37*
G36*
X15880000Y6500000D02*
X15810001D01*
Y6410000D01*
X15880000D01*
Y6500000D01*
D02*
G37*
G36*
X14745000Y6420001D02*
X14689999D01*
Y6380000D01*
X14745000D01*
Y6420001D01*
D02*
G37*
G36*
X17050000Y5791126D02*
X17020000D01*
Y5728000D01*
X17121809D01*
X17120634Y5736926D01*
X17113329Y5754563D01*
X17101707Y5769708D01*
X17086563Y5781329D01*
X17068925Y5788634D01*
X17050000Y5791126D01*
D02*
G37*
G36*
X17000000D02*
X16970000D01*
X16951074Y5788634D01*
X16933437Y5781329D01*
X16918294Y5769708D01*
X16906673Y5754563D01*
X16899367Y5736926D01*
X16898190Y5728000D01*
X17000000D01*
Y5791126D01*
D02*
G37*
G36*
X17121809Y5708001D02*
X17020000D01*
Y5644874D01*
X17050000D01*
X17068925Y5647366D01*
X17086563Y5654671D01*
X17101707Y5666292D01*
X17113329Y5681437D01*
X17120634Y5699074D01*
X17121809Y5708001D01*
D02*
G37*
G36*
X17000000D02*
X16898190D01*
X16899367Y5699074D01*
X16906673Y5681437D01*
X16918294Y5666292D01*
X16933437Y5654671D01*
X16951074Y5647366D01*
X16970000Y5644874D01*
X17000000D01*
Y5708001D01*
D02*
G37*
G36*
X16585001D02*
X16468192D01*
X16469366Y5699074D01*
X16476672Y5681437D01*
X16488293Y5666292D01*
X16503436Y5654671D01*
X16521074Y5647366D01*
X16539999Y5644874D01*
X16585001D01*
Y5708001D01*
D02*
G37*
G36*
X16625000Y5627500D02*
X16564999D01*
Y5550000D01*
X16625000D01*
Y5627500D01*
D02*
G37*
G36*
X16545000D02*
X16485001D01*
Y5550000D01*
X16545000D01*
Y5627500D01*
D02*
G37*
G36*
X16625000Y5530000D02*
X16564999D01*
Y5452500D01*
X16625000D01*
Y5530000D01*
D02*
G37*
G36*
X16545000D02*
X16485001D01*
Y5452500D01*
X16545000D01*
Y5530000D01*
D02*
G37*
%LPD*%
G36*
X16467300Y6240722D02*
X16465829Y6228466D01*
X16448232Y6224965D01*
X16412132D01*
X16412131Y6224966D01*
X16391368Y6220836D01*
X16373767Y6209075D01*
X16373766Y6209074D01*
X16331734Y6167041D01*
X16320000Y6171901D01*
Y6175000D01*
X16270000D01*
Y6125000D01*
X16273099D01*
X16277959Y6113267D01*
X16189658Y6024965D01*
X15979391D01*
X15969075Y6040404D01*
X15969073Y6040404D01*
X15937904Y6071575D01*
X15920303Y6083336D01*
X15902554Y6086866D01*
X15899541Y6087466D01*
X15890199Y6087700D01*
Y6087700D01*
X15854373D01*
X15843262Y6095124D01*
X15822501Y6099254D01*
X15801738Y6095124D01*
X15790627Y6087700D01*
X15754800D01*
Y6002300D01*
X15747501Y6000000D01*
Y5960000D01*
X15822501D01*
Y5940000D01*
X15747501D01*
Y5900000D01*
X15754800Y5897699D01*
Y5812300D01*
X15790627D01*
X15801738Y5804876D01*
X15822501Y5800746D01*
X15843262Y5804876D01*
X15854373Y5812300D01*
X15890199D01*
Y5812299D01*
X15899541Y5812533D01*
X15902554Y5813133D01*
X15920303Y5816664D01*
X15937904Y5828425D01*
X15969073Y5859595D01*
X15969075Y5859596D01*
X15979391Y5875034D01*
X16217133D01*
X16222392Y5862334D01*
X16138301Y5778243D01*
X15751698D01*
X15718243Y5811699D01*
Y5879999D01*
X15718243Y5880000D01*
X15716093Y5890808D01*
X15709972Y5899971D01*
X15709970Y5899971D01*
X15658318Y5951625D01*
Y5953878D01*
X15719971Y6015532D01*
X15726093Y6024695D01*
X15728242Y6035503D01*
X15728242Y6035504D01*
Y6098301D01*
X15861699Y6231757D01*
X15970000D01*
Y6195000D01*
X16030000D01*
X16089999D01*
Y6232851D01*
X16095306Y6233907D01*
X16104468Y6240029D01*
X16171196Y6306757D01*
X16207300D01*
Y6282300D01*
X16312700D01*
Y6306757D01*
X16354999D01*
X16355000Y6306757D01*
X16365808Y6308907D01*
X16374971Y6315029D01*
X16421700Y6361757D01*
X16467300D01*
Y6240722D01*
D02*
G37*
G36*
X15631757Y6528302D02*
Y6450001D01*
X15631757Y6450000D01*
X15633907Y6439192D01*
X15640028Y6430029D01*
X15801283Y6268774D01*
Y6251225D01*
X15680029Y6129971D01*
X15673907Y6120808D01*
X15671758Y6110000D01*
X15671758Y6109999D01*
Y6047202D01*
X15651933Y6027378D01*
X15640199Y6032238D01*
Y6087700D01*
X15604373D01*
X15593262Y6095124D01*
X15572501Y6099254D01*
X15547501D01*
X15547501Y6099254D01*
X15526738Y6095124D01*
X15515627Y6087700D01*
X15504800D01*
Y6086243D01*
X15499078Y6081749D01*
X15485104Y6086908D01*
X15483865Y6093132D01*
X15472105Y6110734D01*
X15472104Y6110734D01*
X15323763Y6259075D01*
X15306161Y6270836D01*
X15285400Y6274966D01*
X15285397Y6274966D01*
X15238818D01*
X15238789Y6275000D01*
X15236874Y6284624D01*
X15233847Y6289155D01*
X15238541Y6300805D01*
X15239473Y6301855D01*
X15330000D01*
X15338858Y6303617D01*
X15346365Y6308634D01*
X15355032Y6317300D01*
X15427699D01*
Y6422700D01*
X15398145D01*
Y6442300D01*
X15427699D01*
Y6547700D01*
X15322301D01*
Y6518686D01*
X15237157D01*
X15236501Y6520270D01*
X15227313Y6529457D01*
X15231306Y6542157D01*
X15250398D01*
X15250400Y6542157D01*
X15261208Y6544307D01*
X15270370Y6550429D01*
X15309970Y6590029D01*
X15309972Y6590029D01*
X15316093Y6599192D01*
X15318243Y6610000D01*
Y6654717D01*
X15325282Y6661757D01*
X15498302D01*
X15631757Y6528302D01*
D02*
G37*
G36*
X13883377Y6242686D02*
X13873618Y6225781D01*
X13867300Y6202204D01*
Y6177796D01*
X13873618Y6154219D01*
X13885822Y6133081D01*
X13903081Y6115822D01*
X13924219Y6103618D01*
X13947797Y6097300D01*
X13972205D01*
X13995781Y6103618D01*
X14016919Y6115822D01*
X14034178Y6133081D01*
X14046382Y6154219D01*
X14049768Y6166855D01*
X14550414D01*
X14617732Y6099536D01*
X14617300Y6098494D01*
Y6081507D01*
X14623801Y6065813D01*
X14635812Y6053801D01*
X14651506Y6047300D01*
X14668494D01*
X14684187Y6053801D01*
X14696199Y6065813D01*
X14702699Y6081507D01*
Y6098494D01*
X14696199Y6114187D01*
X14684187Y6126199D01*
X14675925Y6129622D01*
X14676666Y6143061D01*
X14688242Y6147856D01*
X14700253Y6159868D01*
X14706755Y6175562D01*
Y6192549D01*
X14703217Y6201091D01*
X14713634Y6208634D01*
X14721143Y6203617D01*
X14730000Y6201855D01*
X14760527D01*
X14761459Y6200804D01*
X14766153Y6189155D01*
X14763126Y6184624D01*
X14761211Y6175000D01*
X14763126Y6165377D01*
X14768576Y6157219D01*
Y6142782D01*
X14763126Y6134624D01*
X14761211Y6125000D01*
X14763126Y6115377D01*
X14768576Y6107219D01*
Y6092782D01*
X14763126Y6084624D01*
X14761211Y6075000D01*
X14763126Y6065376D01*
X14768576Y6057218D01*
X14776733Y6051767D01*
X14786359Y6049853D01*
X14838190D01*
X14845695Y6045695D01*
X14849854Y6038189D01*
Y5992879D01*
X14833633Y5976660D01*
X14828616Y5969152D01*
X14826855Y5960295D01*
Y5900000D01*
X14828616Y5891143D01*
X14831854Y5886297D01*
Y5830000D01*
X14832300Y5827764D01*
Y5752300D01*
X14877855D01*
Y5712700D01*
X14848300D01*
Y5627300D01*
X14953700D01*
Y5712700D01*
X14924146D01*
Y5769000D01*
X14922383Y5777857D01*
X14917700Y5784865D01*
Y5866900D01*
X14917700Y5867700D01*
X14925185Y5877300D01*
X14928493D01*
X14944186Y5883801D01*
X14956200Y5895813D01*
X14958127Y5900466D01*
X14971873D01*
X14973801Y5895813D01*
X14985812Y5883801D01*
X14994023Y5880400D01*
X14991496Y5867700D01*
X14982300D01*
Y5752300D01*
X15001855D01*
Y5682000D01*
X15003616Y5673142D01*
X15008633Y5665634D01*
X15044835Y5629433D01*
X15039975Y5617700D01*
X14972301D01*
Y5598145D01*
X14885001D01*
X14876143Y5596383D01*
X14868634Y5591365D01*
X14807913Y5530645D01*
X14763715D01*
X14751700Y5532300D01*
X14751700Y5543345D01*
Y5617700D01*
X14646300D01*
Y5598145D01*
X14598587D01*
X14498364Y5698366D01*
X14490857Y5703383D01*
X14482001Y5705145D01*
X14223587D01*
X14039842Y5888890D01*
X14046382Y5900219D01*
X14052699Y5923796D01*
Y5948204D01*
X14046382Y5971781D01*
X14034178Y5992919D01*
X14016919Y6010178D01*
X13995781Y6022382D01*
X13972205Y6028700D01*
X13952554D01*
X13949577Y6033154D01*
X13848645Y6134087D01*
Y6225913D01*
X13873215Y6250484D01*
X13883377Y6242686D01*
D02*
G37*
%LPC*%
G36*
X16320000Y6245000D02*
X16270000D01*
Y6195000D01*
X16320000D01*
Y6245000D01*
D02*
G37*
G36*
X16250000D02*
X16200000D01*
Y6195000D01*
X16250000D01*
Y6245000D01*
D02*
G37*
G36*
Y6175000D02*
X16200000D01*
Y6125000D01*
X16250000D01*
Y6175000D01*
D02*
G37*
G36*
X16089999D02*
X16039999D01*
Y6125000D01*
X16089999D01*
Y6175000D01*
D02*
G37*
G36*
X16020000D02*
X15970000D01*
Y6125000D01*
X16020000D01*
Y6175000D01*
D02*
G37*
G36*
X15585001Y6555000D02*
X15535001D01*
Y6505000D01*
X15585001D01*
Y6555000D01*
D02*
G37*
G36*
X15514999D02*
X15464999D01*
Y6505000D01*
X15514999D01*
Y6555000D01*
D02*
G37*
G36*
X15585001Y6485000D02*
X15525000D01*
X15464999D01*
Y6442700D01*
X15464999Y6435000D01*
X15464999Y6422300D01*
Y6380000D01*
X15525000D01*
X15585001D01*
Y6422300D01*
X15585001Y6430000D01*
X15585001Y6442700D01*
Y6485000D01*
D02*
G37*
G36*
Y6360000D02*
X15535001D01*
Y6310000D01*
X15585001D01*
Y6360000D01*
D02*
G37*
G36*
X15514999D02*
X15464999D01*
Y6310000D01*
X15514999D01*
Y6360000D01*
D02*
G37*
G36*
X14489999Y6025000D02*
X14380000D01*
Y5962500D01*
X14489999D01*
Y6025000D01*
D02*
G37*
G36*
X14360001D02*
X14250000D01*
Y5962500D01*
X14360001D01*
Y6025000D01*
D02*
G37*
G36*
X14489999Y5942500D02*
X14380000D01*
Y5880000D01*
X14489999D01*
Y5942500D01*
D02*
G37*
G36*
X14360001D02*
X14250000D01*
Y5880000D01*
X14360001D01*
Y5942500D01*
D02*
G37*
%LPD*%
D10*
X16537500Y6470000D02*
D03*
Y6390000D02*
D03*
Y5910000D02*
D03*
Y5830000D02*
D03*
D11*
Y6325000D02*
D03*
Y6275000D02*
D03*
Y6225000D02*
D03*
Y6175000D02*
D03*
Y5975000D02*
D03*
Y6025000D02*
D03*
Y6075000D02*
D03*
Y6125000D02*
D03*
D12*
X16030000Y7150000D02*
D03*
D13*
X16260001Y6510000D02*
D03*
X16030000D02*
D03*
X15800000D02*
D03*
D14*
X14370000Y5952500D02*
D03*
Y5507500D02*
D03*
Y6832500D02*
D03*
Y6387500D02*
D03*
D15*
X14680000Y6835000D02*
D03*
Y6685000D02*
D03*
X14810001Y6835000D02*
D03*
Y6685000D02*
D03*
X14680000Y6280000D02*
D03*
Y6430000D02*
D03*
X15360001Y5635000D02*
D03*
Y5485000D02*
D03*
X14939999Y6685000D02*
D03*
Y6835000D02*
D03*
D16*
X14875000Y5810000D02*
D03*
X15025000D02*
D03*
X16445000Y6880000D02*
D03*
X16595000D02*
D03*
D17*
X16970000Y6865000D02*
D03*
Y7055000D02*
D03*
D18*
X16745000Y5540000D02*
D03*
X16555000D02*
D03*
D19*
X15025000Y5575000D02*
D03*
X15227000Y5670000D02*
D03*
Y5480000D02*
D03*
X14699001Y5575000D02*
D03*
X14900999Y5670000D02*
D03*
Y5480000D02*
D03*
D20*
X15125000Y6014875D02*
D03*
X15075000D02*
D03*
X15025000D02*
D03*
X14975000D02*
D03*
X14925000D02*
D03*
X14875000D02*
D03*
Y6385125D02*
D03*
X14925000D02*
D03*
X14975000D02*
D03*
X15025000D02*
D03*
X15075000D02*
D03*
X15125000D02*
D03*
D21*
X14814874Y6075000D02*
D03*
Y6125000D02*
D03*
Y6175000D02*
D03*
Y6225000D02*
D03*
Y6275000D02*
D03*
Y6325000D02*
D03*
X15185126D02*
D03*
Y6275000D02*
D03*
Y6225000D02*
D03*
Y6175000D02*
D03*
Y6125000D02*
D03*
D22*
Y6075000D02*
D03*
D23*
X15000000Y6200000D02*
D03*
D24*
X15572501Y5950000D02*
D03*
Y6045000D02*
D03*
X15822501D02*
D03*
Y5950000D02*
D03*
Y5855000D02*
D03*
X15572501D02*
D03*
D25*
X16600000Y7020000D02*
D03*
X16439999D02*
D03*
X15525000Y6495000D02*
D03*
X15375000D02*
D03*
X15525000Y6370000D02*
D03*
X15375000D02*
D03*
D26*
X15070000Y6685000D02*
D03*
Y6835000D02*
D03*
X15200000Y6685000D02*
D03*
Y6835000D02*
D03*
X16030000Y6185000D02*
D03*
Y6335000D02*
D03*
X16260001Y6185000D02*
D03*
Y6335000D02*
D03*
D27*
X15477000Y7090000D02*
X15537000Y7150000D01*
X15070000Y6835000D02*
X15200000D01*
X15200000Y6835000D02*
X15223000Y6858000D01*
Y7090000D01*
X14939999Y6835000D02*
X15070000D01*
X15537000Y7150000D02*
X16030000D01*
X16030000Y7150000D01*
X15821529Y5949029D02*
X15822501Y5950000D01*
X15717313Y5949029D02*
X15821529D01*
X15716341Y5948058D02*
X15717313Y5949029D01*
X16159499Y6335000D02*
X16260001D01*
X16084499Y6260000D02*
X16159499Y6335000D01*
X15739999Y5750000D02*
X16150000D01*
X16310001Y5910000D02*
X16537500D01*
X16150000Y5750000D02*
X16310001Y5910000D01*
X15689999Y5800000D02*
X15739999Y5750000D01*
X15689999Y5800000D02*
Y5880000D01*
X15630074Y5938870D02*
Y5970000D01*
X15600000Y5950000D02*
Y5952499D01*
X15626852Y5935648D02*
X15630074Y5938870D01*
X15625073Y5965000D02*
X15630074Y5970000D01*
X15572501Y5950000D02*
X15600000D01*
X15634497Y5970000D02*
X15700000Y6035503D01*
Y6110000D01*
X15587500Y5935000D02*
X15635001D01*
X15700000Y6110000D02*
X15850000Y6260000D01*
X15612500Y5965000D02*
X15625073D01*
X15630074Y5970000D02*
X15634497D01*
X15600000Y5952499D02*
X15612500Y5965000D01*
X15572501Y5950000D02*
X15587500Y5935000D01*
X15635001D02*
X15689999Y5880000D01*
X15829527Y6280473D02*
X15850000Y6260000D01*
X15660001Y6450000D02*
X15829527Y6280473D01*
Y6246102D02*
Y6280473D01*
X15292308Y6711276D02*
X15313583Y6690000D01*
X15292308Y6711276D02*
Y6712799D01*
X15510001Y6690000D02*
X15660001Y6540000D01*
Y6450000D02*
Y6540000D01*
X15850000Y6260000D02*
X16084499D01*
X15294196Y6670611D02*
X15313583Y6690000D01*
X15289999Y6610000D02*
Y6700000D01*
X15313583Y6690000D02*
X15510001D01*
X15300000D02*
X15313583D01*
X15289999Y6700000D02*
Y6745000D01*
X15200000Y6835000D02*
X15289999Y6745000D01*
X16260001Y6335000D02*
Y6510000D01*
X15289999Y6700000D02*
X15300000Y6690000D01*
X16309999Y7150000D02*
X16439999Y7020000D01*
X16030000Y7150000D02*
X16309999D01*
X16030000Y6510000D02*
Y7150000D01*
X16355000Y6335000D02*
X16410001Y6390000D01*
X16537500D01*
X16260001Y6335000D02*
X16355000D01*
X15124864Y6430000D02*
Y6514864D01*
X15180400Y6570400D01*
X15250400D02*
X15289999Y6610000D01*
X15180400Y6570400D02*
X15250400D01*
X15200000Y6835000D02*
X15200000Y6835000D01*
X16030000Y6335000D02*
Y6510000D01*
D28*
X15220000Y5820000D02*
X15227000Y5813000D01*
Y5670000D02*
Y5813000D01*
X15220000Y5820000D02*
Y5841357D01*
X15075000Y5986358D02*
Y6014875D01*
Y5986358D02*
X15220000Y5841357D01*
X15227000Y5670000D02*
X15310001D01*
X15345000Y5635000D02*
X15360001D01*
X15310001Y5670000D02*
X15345000Y5635000D01*
X14911000Y5480000D02*
X14974001Y5417000D01*
X15277000D01*
X14900999Y5480000D02*
X14911000D01*
X15345000Y5485000D02*
X15360001D01*
X15277000Y5417000D02*
X15345000Y5485000D01*
X15197000Y5500000D02*
X15217000Y5480000D01*
X15227000D01*
X15197000Y5500000D02*
Y5510000D01*
X15025000Y5682000D02*
X15197000Y5510000D01*
X15025000Y5682000D02*
Y5810000D01*
X14370000Y5507500D02*
X14817500D01*
X14885001Y5575000D01*
X15025000D01*
X14875000Y5795000D02*
X14900999Y5769000D01*
Y5670000D02*
Y5769000D01*
X14875000Y5795000D02*
Y5810000D01*
X14855000Y5830000D02*
Y5895000D01*
X14850000Y5900000D02*
X14855000Y5895000D01*
Y5830000D02*
X14875000Y5810000D01*
X14850000Y5900000D02*
Y5960295D01*
X14875000Y5985295D02*
Y6014875D01*
X14850000Y5960295D02*
X14875000Y5985295D01*
X14589000Y5575000D02*
X14699001D01*
X14482001Y5682000D02*
X14589000Y5575000D01*
X14232500Y5507500D02*
X14370000D01*
X14920000Y5920000D02*
X14924248Y5924249D01*
Y6014124D02*
X14925000Y6014875D01*
X14924248Y5924249D02*
Y6014124D01*
X14489999Y6480000D02*
X14580000Y6390000D01*
X13997884Y6444000D02*
X14033884Y6480000D01*
X14489999D01*
X13960001Y6444000D02*
X13997884D01*
X14580000Y6258344D02*
Y6390000D01*
X16600000Y6885000D02*
Y7020000D01*
X16595000Y6880000D02*
X16600000Y6885000D01*
X14580000Y6258344D02*
X14654289Y6184055D01*
X14560001Y6190000D02*
X14660001Y6090000D01*
X13960001Y6190000D02*
X14560001D01*
X14975000Y5985295D02*
Y6014875D01*
X15002345Y5927654D02*
X15010001Y5920000D01*
X15002345Y5927654D02*
Y5957948D01*
X14975000Y5985295D02*
X15002345Y5957948D01*
X13960001Y5682000D02*
X13960284Y5681716D01*
X14058284D01*
X14232500Y5507500D01*
X13825500Y6124500D02*
Y6235500D01*
X13906186Y6316186D01*
X13825500Y6124500D02*
X13933212Y6016788D01*
Y5962788D02*
Y6016788D01*
Y5962788D02*
X13960001Y5936000D01*
X14214000Y5682000D02*
X14482001D01*
X13960001Y5936000D02*
X14214000Y5682000D01*
X15250000Y6020000D02*
Y6106776D01*
X15185876Y6124249D02*
X15232529D01*
X15250000Y6106776D01*
X15185126Y6125000D02*
X15185876Y6124249D01*
X15075000Y6125000D02*
X15185126D01*
X15000000Y6200000D02*
X15075000Y6125000D01*
X13906186Y6316186D02*
X14338686D01*
X14370000Y6347500D01*
X14710001Y6798721D02*
X14737086Y6771634D01*
Y6763517D02*
Y6771634D01*
X14680000Y6835000D02*
X14695000D01*
X14710001Y6820000D01*
Y6798721D02*
Y6820000D01*
X15374458Y6495541D02*
X15375000Y6495000D01*
X15200842Y6495541D02*
X15374458D01*
X15200301Y6496083D02*
X15200842Y6495541D01*
X14654289Y6184055D02*
X14664055D01*
X14730000Y6225000D02*
X14814874D01*
X14680000Y6275000D02*
X14730000Y6225000D01*
X14919940Y6535686D02*
X15024248Y6431377D01*
X14680000Y6620000D02*
X14764314Y6535686D01*
X14919940D01*
X16537500Y6325000D02*
X16650000D01*
X16735001Y6345000D02*
X16780000Y6390000D01*
X16650000Y6325000D02*
X16670000Y6345000D01*
X16735001D01*
X16537500Y6025000D02*
X16635001D01*
X16745000Y5915000D01*
X15185126Y6278287D02*
Y6325000D01*
X16780000Y6390000D02*
Y6675000D01*
X16912500Y6807500D01*
X16952499Y6865000D02*
X16970000D01*
X16912500Y6825000D02*
X16952499Y6865000D01*
X16912500Y6807500D02*
Y6825000D01*
X16745000Y5540000D02*
Y5915000D01*
X15074248Y6385876D02*
X15075000Y6385125D01*
X15074248Y6385876D02*
Y6445752D01*
X14939999Y6580000D02*
X15074248Y6445752D01*
X15375000Y6370000D02*
Y6495000D01*
X15185126Y6325000D02*
X15330000D01*
X15375000Y6370000D01*
X14680000Y6620000D02*
Y6685000D01*
X15024248Y6385876D02*
Y6431377D01*
Y6385876D02*
X15025000Y6385125D01*
X14810001Y6685000D02*
X14939999D01*
Y6580000D02*
Y6685000D01*
D29*
X15930711Y5987362D02*
X15947362Y5970711D01*
X15899541Y5866788D02*
X15930711Y5897959D01*
X15822501Y5855000D02*
X15834288Y5866788D01*
X15822501Y6045000D02*
X15834288Y6033211D01*
X15930711Y5897959D02*
Y5912638D01*
X15834288Y5866788D02*
X15899541D01*
Y6033211D02*
X15930711Y6002041D01*
X16212131Y5970711D02*
X16412131Y6170712D01*
X16462329D01*
X15947362Y5929288D02*
X16229288D01*
X15947362Y5970711D02*
X16212131D01*
X15930711Y5912638D02*
X15947362Y5929288D01*
X15834288Y6033211D02*
X15899541D01*
X16229288Y5929288D02*
X16429288Y6129288D01*
X16462329D01*
X15930711Y5987362D02*
Y6002041D01*
X15285400Y6220712D02*
X15433742Y6072370D01*
Y5987362D02*
Y6072370D01*
X15450392Y5970711D02*
X15473938D01*
X15490588Y5987362D01*
X15185126Y6175000D02*
X15187372Y6177248D01*
X15508554Y6009113D02*
X15511613D01*
X15217931Y6179288D02*
X15268242D01*
X15215891Y6177248D02*
X15217931Y6179288D01*
X15187372Y6177248D02*
X15215891D01*
Y6222752D02*
X15217931Y6220712D01*
X15187372Y6222752D02*
X15215891D01*
X15185126Y6225000D02*
X15187372Y6222752D01*
X15268242Y6179288D02*
X15392319Y6055212D01*
X15511613Y6009113D02*
X15547501Y6045000D01*
X15490588Y5908853D02*
X15508554Y5890886D01*
X15433234Y5929288D02*
X15473938D01*
X15490588Y5912638D01*
Y5987362D02*
Y5991147D01*
X15392319Y5970204D02*
Y6055212D01*
X15490588Y5991147D02*
X15508554Y6009113D01*
Y5890886D02*
X15511613D01*
X15547501Y5855000D01*
X15572501D01*
X15217931Y6220712D02*
X15285400D01*
X15490588Y5908853D02*
Y5912638D01*
X15392319Y5970204D02*
X15433234Y5929288D01*
X15547501Y6045000D02*
X15572501D01*
X15433742Y5987362D02*
X15450392Y5970711D01*
X16462329Y6170712D02*
X16465829Y6174212D01*
X16536713D01*
X16462329Y6129288D02*
X16465829Y6125788D01*
X16536713D01*
D30*
X16733084Y6058207D02*
X16742555D01*
X16716292Y6075000D02*
X16733084Y6058207D01*
X16537500Y6075000D02*
X16716292D01*
X16535001Y6127500D02*
X16536713Y6125788D01*
X16541251Y6123750D02*
X16742139D01*
X16539999Y6122500D02*
X16541251Y6123750D01*
X16536713Y6125788D02*
X16537500Y6125000D01*
X16539999Y6122500D01*
X16742139Y6123750D02*
X16782500Y6164112D01*
X16536713Y6174212D02*
X16537500Y6175000D01*
X16535001Y6172500D02*
X16536713Y6174212D01*
X16695529Y6175000D02*
X16710529Y6190000D01*
X16537500Y6175000D02*
X16695529D01*
X16710529Y6190000D02*
X16720000D01*
X16649194Y6225000D02*
X16676694Y6252500D01*
X16537500Y6225000D02*
X16649194D01*
X16782500Y6164112D02*
Y6215888D01*
X16745888Y6252500D02*
X16782500Y6215888D01*
X16676694Y6252500D02*
X16745888D01*
X15124864Y6385261D02*
Y6430000D01*
Y6385261D02*
X15125000Y6385125D01*
D31*
X13960001Y6190000D02*
D03*
Y5936000D02*
D03*
Y6444000D02*
D03*
Y6698000D02*
D03*
X15223000Y7090000D02*
D03*
D32*
X13960001Y5682000D02*
D03*
D33*
X15477000Y7090000D02*
D03*
D34*
X16595000Y6582000D02*
D03*
Y5718000D02*
D03*
D35*
X17010001Y6582000D02*
D03*
Y5718000D02*
D03*
D36*
X16645000Y6439000D02*
D03*
Y5861000D02*
D03*
D37*
X14920000Y5920000D02*
D03*
X15010001D02*
D03*
X16360001Y6240000D02*
D03*
X16742555Y6058207D02*
D03*
X15716341Y5948058D02*
D03*
X14737086Y6763517D02*
D03*
X15200301Y6496083D02*
D03*
X14664055Y6184055D02*
D03*
X14660001Y6090000D02*
D03*
X14789999Y6440000D02*
D03*
X15920000Y6180000D02*
D03*
X16720000Y6190000D02*
D03*
X15860001Y6370000D02*
D03*
X15800000Y6630000D02*
D03*
X16360001Y5830000D02*
D03*
X14810001Y6930000D02*
D03*
X15088251Y6582216D02*
D03*
X15620000Y6370000D02*
D03*
X16439999Y5540000D02*
D03*
X16410001Y6470000D02*
D03*
X17110001Y7060000D02*
D03*
X16439999Y6770000D02*
D03*
X14370000Y6070000D02*
D03*
Y6930000D02*
D03*
%TF.MD5,1ce4d81327704246a46c56eec93b123f*%
M02*
